<svg id="Group_38" data-name="Group 38" xmlns="http://www.w3.org/2000/svg" xmlns:xlink="http://www.w3.org/1999/xlink" width="518.238" height="390.9" viewBox="0 0 518.238 390.9">
  <defs>
    <linearGradient id="linear-gradient" x1="0.877" y1="1" x2="0.877" gradientUnits="objectBoundingBox">
      <stop offset="0" stop-color="gray" stop-opacity="0.251"/>
      <stop offset="0.54" stop-color="gray" stop-opacity="0.122"/>
      <stop offset="1" stop-color="gray" stop-opacity="0.102"/>
    </linearGradient>
    <linearGradient id="linear-gradient-2" x1="0.5" y1="1" x2="0.5" y2="0" xlink:href="#linear-gradient"/>
  </defs>
  <path id="Path_460" data-name="Path 460" d="M380.24,97.03c-22.237,18.876-51.081,17.655-76.356,7.832s-48.494-27.3-73.121-39.734a205.291,205.291,0,0,0-64.24-20.3c-31.387-4.356-66.437.962-88.3,31.464-24.353,33.983-22.482,95.276,3.846,126.451,13.4,15.867,30.945,23.656,46.244,36.06s29.468,32.964,28.165,56.879c-1.207,22.117-15.232,39.123-29.747,49.782-11.217,8.236-25.031,17.232-26.382,34.3-1.308,16.506,10.308,29.444,21.4,36.8,36.185,24,80.775,23.766,116.835-.606,12.857-8.7,24.665-20.266,38.152-27.036,35.411-17.79,74.433.115,111.931,6.669a186.255,186.255,0,0,0,95.2-8.4c18.569-6.65,37.209-16.828,50.254-35.753,9.409-13.655,15.27-30.94,20.771-48.008q8.8-27.3,16.919-54.985c3.245-11.083,6.443-22.377,7.284-34.228,1.519-21.482-4.885-42.719-13.607-60.846-20.708-43.046-55.586-73.313-93.357-81S394.395,79.687,365.1,112.545" transform="translate(-61.076 -43.494)" fill="#6c63ff" opacity="0.1"/>
  <ellipse id="Ellipse_52" data-name="Ellipse 52" cx="109.133" cy="4.981" rx="109.133" ry="4.981" transform="translate(126.242 251.059)" fill="#6c63ff" opacity="0.1"/>
  <path id="Path_461" data-name="Path 461" d="M436.16,319.559a98.94,98.94,0,1,1,98.925-98.94A99.05,99.05,0,0,1,436.16,319.559Zm0-196.918a97.978,97.978,0,1,0,97.978,97.978,98.089,98.089,0,0,0-97.978-97.978Z" transform="translate(-204.449 -84.088)" fill="#fff"/>
  <path id="Path_462" data-name="Path 462" d="M460.131,321.332A76.736,76.736,0,1,1,536.867,244.6,76.83,76.83,0,0,1,460.131,321.332Zm0-152.511A75.775,75.775,0,1,0,535.906,244.6,75.862,75.862,0,0,0,460.131,168.822Z" transform="translate(-228.42 -108.065)" fill="#fff"/>
  <path id="Path_463" data-name="Path 463" d="M485.888,323.237a52.888,52.888,0,1,1,52.888-52.888A52.888,52.888,0,0,1,485.888,323.237Zm0-104.815a51.927,51.927,0,1,0,51.927,51.927,51.927,51.927,0,0,0-51.927-51.927Z" transform="translate(-254.177 -133.817)" fill="#fff"/>
  <ellipse id="Ellipse_53" data-name="Ellipse 53" cx="6.861" cy="2.269" rx="6.861" ry="2.269" transform="translate(464.314 191.569)" fill="#6c63ff" opacity="0.1"/>
  <ellipse id="Ellipse_54" data-name="Ellipse 54" cx="40.407" cy="6.63" rx="40.407" ry="6.63" transform="translate(45.433 306.765)" fill="#6c63ff" opacity="0.1"/>
  <g id="Group_26" data-name="Group 26" transform="translate(26.956 129.68)" opacity="0.1">
    <path id="Path_464" data-name="Path 464" d="M246.856,313.21H123.583a6.462,6.462,0,0,0-6.443,6.443v77.89a6.462,6.462,0,0,0,6.443,6.443h96.7s2.5,13.3-5.726,14.732c0,0,18.434,1.322,15.213-14.732h17.083a6.462,6.462,0,0,0,6.443-6.443v-77.89A6.462,6.462,0,0,0,246.856,313.21Z" transform="translate(-117.14 -313.21)"/>
    <g id="Group_25" data-name="Group 25" transform="translate(18.146 20.675)" opacity="0.2">
      <rect id="Rectangle_293" data-name="Rectangle 293" width="99.863" height="6.087" rx="3.043"/>
      <rect id="Rectangle_294" data-name="Rectangle 294" width="99.863" height="6.087" rx="3.043" transform="translate(0 27.204)"/>
      <rect id="Rectangle_295" data-name="Rectangle 295" width="83.746" height="6.087" rx="3.043" transform="translate(0 40.801)"/>
      <rect id="Rectangle_296" data-name="Rectangle 296" width="43.301" height="6.087" rx="3.043" transform="translate(0 13.602)"/>
    </g>
  </g>
  <path id="Path_465" data-name="Path 465" d="M249.091,312.09H125.813a6.462,6.462,0,0,0-6.443,6.443v77.89a6.462,6.462,0,0,0,6.443,6.443h96.7s2.51,13.3-5.726,14.727c0,0,18.434,1.322,15.213-14.727h17.088a6.457,6.457,0,0,0,6.438-6.443v-77.89a6.457,6.457,0,0,0-6.438-6.443Z" transform="translate(-91.342 -182.948)" fill="#fff"/>
  <g id="Group_27" data-name="Group 27" transform="translate(46.178 149.816)" opacity="0.2">
    <rect id="Rectangle_297" data-name="Rectangle 297" width="99.863" height="6.087" rx="3.043" transform="translate(0 0)" fill="#6c63ff"/>
    <rect id="Rectangle_298" data-name="Rectangle 298" width="99.863" height="6.087" rx="3.043" transform="translate(0 27.204)" fill="#6c63ff"/>
    <rect id="Rectangle_299" data-name="Rectangle 299" width="83.746" height="6.087" rx="3.043" transform="translate(0 40.806)" fill="#6c63ff"/>
    <rect id="Rectangle_300" data-name="Rectangle 300" width="43.301" height="6.087" rx="3.043" transform="translate(0 13.602)" fill="#6c63ff"/>
  </g>
  <path id="Path_466" data-name="Path 466" d="M267.313,300.906l-6.832,14.53s-1.01,2.726-1.659,3.231S255.3,327.8,255.3,327.8l-7.323,11.318h0l-.481.769-2.885-.793-2.015-7.534.125-2.188V329.1s4.534-4.741,5.539-5.1c0,0,.789.091,2.3-3.582s2.885-4.471,2.885-4.471l.789-2.664,8.491-13.515s7.116-10.207,9.053-5.678S267.313,300.906,267.313,300.906Z" transform="translate(-155.322 -173)" fill="#ffd2c6"/>
  <path id="Path_467" data-name="Path 467" d="M213.966,519.658a1.635,1.635,0,0,1-.231.7c-.789,1.149-5.246,24.66-5.246,24.66.356,1.587-.644,4.75-1.3,6.188s-2.087,8.914-2.087,8.914-.356,16.107-1.289,18.622.3,7.909.3,7.909c-.091,2.481,1.4,5.1,2.284,6.438.067.087.12.173.173.245.288.414.481.649.481.649a3.745,3.745,0,0,0,1,1.245c.063.053.13.1.2.154a11.448,11.448,0,0,0,4.029,1.7l.139.029c.577.13.962.178.962.178l.356,1.923-3.808.789-7.26.481s-8.558.649-6.616-3.164a6.033,6.033,0,0,0,.351-.808h0c.072-.183.139-.375.2-.567a19.736,19.736,0,0,0,.38-8.116l-1.673-12.958c-2.726-12.078,2.154-25.526,2.154-25.526s-.428-1.077.51-3.808,0-8.7,0-8.7-.481-7.693-1.149-11.506a23.245,23.245,0,0,1-.26-4.842,24.176,24.176,0,0,1,.26-2.837l16.4-2.173A12.65,12.65,0,0,1,213.966,519.658Z" transform="translate(-130.343 -288.548)" fill="#ffd2c6"/>
  <path id="Path_468" data-name="Path 468" d="M215.094,682.666l-3.808.789-7.26.481s-8.558.649-6.616-3.164a6.033,6.033,0,0,0,.351-.808h0c.072-.183.139-.375.2-.567a13.167,13.167,0,0,1,4.327.875c2.438.962,4.274-1.515,4.274-1.515l1.183-2.26.173-.327c.288.413.481.649.481.649a3.848,3.848,0,0,0,1.207,1.394l-.2.423-1.149,2.4s1.471.149,3.486.481a1.558,1.558,0,0,0,1.894-1.039l.139.029c.577.13.962.178.962.178Z" transform="translate(-131.711 -371.977)" opacity="0.1"/>
  <path id="Path_469" data-name="Path 469" d="M217.948,685.1c-.288,1.293-8.3,1.692-8.3,1.692s-4.462-.433-5.712.611-4.933.793-5.077.793-2.082-.077-2.842-3.558c-.736-3.394.99-3.986,1.077-4.015h0a13.043,13.043,0,0,1,4.534.88c2.438.962,4.274-1.51,4.274-1.51l1.356-2.592c.288.414.481.649.481.649a3.8,3.8,0,0,0,1.207,1.4l-1.351,2.842s1.471.149,3.486.481a1.665,1.665,0,0,0,2.034-1.582,1.633,1.633,0,0,0,0-.216s1.255.361,2.8.793A2.885,2.885,0,0,1,217.948,685.1Z" transform="translate(-131.04 -372.616)" fill="#626696"/>
  <path id="Path_470" data-name="Path 470" d="M253.866,534.792c-.192,1.149-.389,4.125-.389,4.125.673,2.491-1.053,8.409-1.053,8.409l-.861,3.366c.385,4.327-2.37,14.862-2.37,14.862s-1.846,9.78-2.808,14a11.64,11.64,0,0,0,.481,7.049c.048.115.077.173.077.173a.806.806,0,0,0,.058.236c.024.077.063.231.1.341a5.2,5.2,0,0,0,.962,1.606,4.874,4.874,0,0,0,.514.529l.029.029a10.4,10.4,0,0,0,3.058,1.88h0l.481.192a14.456,14.456,0,0,0,1.524.481h0a1.569,1.569,0,0,0,.173.038l-.389,2.26-5.077-1.3-6.8-2.207-3.366-1.923s.038-.183.106-.534v-.058c.029-.149.058-.327.1-.529.572-2.933,1.875-11.251,1.221-17.357-.813-7.573,2.342-18.025,3.111-20.516a12.438,12.438,0,0,0,.577-4.409c-1.25-1.827-1.539-9.106-1.539-9.106s-2.3-4.7-4.2-9.688a25.485,25.485,0,0,1-1.37-5.039,17.624,17.624,0,0,1-.279-3.683s15.443-14.092,17.136-.447c.058.481.111.9.163,1.337C254.712,531.383,254.048,533.681,253.866,534.792Z" transform="translate(-151.856 -286.545)" fill="#ffd2c6"/>
  <path id="Path_471" data-name="Path 471" d="M256.356,673.292l-.389,2.26-5.077-1.3-6.8-2.207-3.366-1.923s.038-.183.106-.534v-.058c.029-.149.058-.327.1-.529l.481-.048h.038a6.4,6.4,0,0,1,2.851.385c1.106.418,2.558.894,2.856.692a3.634,3.634,0,0,1,1.63-.288l.707-1.548.1-.236a5.135,5.135,0,0,0,.962,1.606,5.432,5.432,0,0,0,.543.558l-.029.548-.038.774a9.9,9.9,0,0,0,2.442,1.13,1.412,1.412,0,0,0,.683,0h0l.481.192a14.47,14.47,0,0,0,1.524.481h0A1.587,1.587,0,0,0,256.356,673.292Z" transform="translate(-154.346 -367.715)" opacity="0.1"/>
  <path id="Path_472" data-name="Path 472" d="M253.305,678.738c-1.418-.409-4.837-1.058-5.39-.553s-5.289,0-5.289,0a2.885,2.885,0,0,1-2.447-1.442c-.962-1.534-.188-6.5-.188-6.5l.351-.034.587-.058h.038a6.331,6.331,0,0,1,2.851.385c1.106.414,2.558.89,2.856.692a3.568,3.568,0,0,1,1.63-.289l.808-1.784a5.193,5.193,0,0,0,.962,1.606,5.431,5.431,0,0,0,.543.558l-.067,1.322a9.958,9.958,0,0,0,2.442,1.125.962.962,0,0,0,1.173-.37.724.724,0,0,0,.087-.2h0a8.258,8.258,0,0,0,2,.668h0a3.671,3.671,0,0,1,3.914,2.818C260.892,678.891,254.695,679.141,253.305,678.738Z" transform="translate(-153.815 -368.338)" fill="#626696"/>
  <path id="Path_473" data-name="Path 473" d="M216.226,519.643c-.317.091-.606.178-.875.264a12.135,12.135,0,0,1-2.12.447c-4.534.639-12.02.255-14.39.106a24.183,24.183,0,0,1,.26-2.837l16.4-2.173A12.845,12.845,0,0,1,216.226,519.643Z" transform="translate(-132.602 -288.532)" opacity="0.1"/>
  <path id="Path_474" data-name="Path 474" d="M228.956,491.519s-6.02.933-10.914,2c-1.635.356-3.144.726-4.26,1.091a13.079,13.079,0,0,1-2.12.447c-5.452.765-15.136.058-15.136.058-2.659-8.626,3.231-19.487,3.231-19.487-.139-.865,1.226-3.52,1.226-3.52l.024-.087.837-3.077h22.362l.274,1.322.567,2.693,3.51,16.669Z" transform="translate(-131.043 -264.389)" fill="#626696"/>
  <path id="Path_475" data-name="Path 475" d="M253.231,518.9l-.135.058-2.616,1.159c-2.832,1.308-11.309,1.553-14.27,1.577a17.622,17.622,0,0,1-.279-3.683s15.443-14.092,17.136-.447C253.125,518.05,253.178,518.468,253.231,518.9Z" transform="translate(-151.856 -286.54)" opacity="0.1"/>
  <path id="Path_476" data-name="Path 476" d="M238.6,495.429l-.548.24-2.616,1.164c-2.885,1.327-11.631,1.563-14.424,1.577h-.736a3.369,3.369,0,0,1-2.587-1.572c0-.173-.135-1.024-.25-1.755-.1-.587-.183-1.091-.183-1.091a67.161,67.161,0,0,1-8.7-4.505c-2.2-1.5-1.644-12.121-1.216-17.463.149-1.841.279-3.053.279-3.053l22.636,1.322,3.173.183,1.817.4.481.1s1.3,9.491,1.923,10.28.221,3.452.144,4.967a9.225,9.225,0,0,1-.212,1.923,11.89,11.89,0,0,1,.712,4.154A8.285,8.285,0,0,0,238.6,495.429Z" transform="translate(-136.815 -264.4)" fill="#626696"/>
  <circle id="Ellipse_55" data-name="Ellipse 55" cx="9.275" cy="9.275" r="9.275" transform="translate(68.286 133.661)" fill="#ffd2c6"/>
  <path id="Path_477" data-name="Path 477" d="M204.771,348.794s.644,8.784-1.149,10.8a80.267,80.267,0,0,1-6.472,5.823l1.442,5.967,8.126.938,9.491-10.14-2.159-2.659s-1.654-5.611-.288-8.414S204.771,348.794,204.771,348.794Z" transform="translate(-131.725 -201.988)" fill="#ffd2c6"/>
  <path id="Path_478" data-name="Path 478" d="M247.98,377.557h0l-.481.769-2.885-.793L242.6,370l.125-2.188.591-.851s3.164.077,3.024,2.952C246.2,372.436,247.639,376.6,247.98,377.557Z" transform="translate(-155.322 -211.437)" opacity="0.1"/>
  <path id="Path_479" data-name="Path 479" d="M235.539,472.114s-2.289.51-4.909.851-5.645.514-6.885-.207c-2.082-1.231-13.362-.88-16.6-.755a3.7,3.7,0,0,0-.558.024l.837-3.077h22.362l.274,1.322,3.173.183,1.817.4C235.356,471.6,235.539,472.114,235.539,472.114Z" transform="translate(-136.626 -264.389)" opacity="0.1"/>
  <path id="Path_480" data-name="Path 480" d="M211.872,368.15s3.164.072,3.019,2.947,1.726,7.837,1.726,7.837l-.721,1.654s-1,4.024-.216,5.034,3.669,1,2.015,9.275c0,0-.356,6.183.5,8.2s.861,6.827,2.154,8.842a48.6,48.6,0,0,1,3.024,6.688s-9.352,2.082-11.794.644-17.472-.707-17.472-.707.072-2.519,0-2.8a2.4,2.4,0,0,1,.361-1.837c.481-.683,1.293-1.832.861-2.837s1.082-2.491.288-4.048-1.755-1.87-1.563-2.721a3.688,3.688,0,0,0-.88-2.721c-.572-.716-4.462-8.318-4.462-8.318l-.644-3.563s-5.005-3.669-4.914-5.395,1.894-4.116,1.894-4.116l4.808-4.726s2.659,2.885,5.246,1.87,8.169-5.823,8.169-5.823,1.991-1.077,2.135-1.866,1.365-.072,1.365-.072,1.8-.986,2.159-.639a6.241,6.241,0,0,0,1.923.639Z" transform="translate(-124.46 -212.054)" fill="#ffcde5"/>
  <path id="Path_481" data-name="Path 481" d="M161.395,399.3l-1.534,1.2a20.478,20.478,0,0,0-1.923,7.837,107.374,107.374,0,0,1-1.923,12.145l-3.019,5.4s-4.976,10.419-5.621,13.184-3.6,7.443-3.6,7.443-10,8.981-3.019,10.578,7.188-7.15,7.188-7.15a9.445,9.445,0,0,0,1.894-3.019c.264-1.221,9.106-16.862,9.106-16.862s3.1-4.207,2.447-6.433c0,0,4.024-9.467,4.024-11.842a42.059,42.059,0,0,0-.644-5.89l.644-4.962Z" transform="translate(-101.163 -228.227)" fill="#ffd2c6"/>
  <path id="Path_482" data-name="Path 482" d="M220.151,440.53s-7.049,3.688-8.414,3.88,5.967-.769,5.967-.769Z" transform="translate(-139.21 -249.634)" opacity="0.1"/>
  <path id="Path_483" data-name="Path 483" d="M226.842,446.51s-9.347,3.164-13.462,2.587C213.4,449.1,223.607,451.039,226.842,446.51Z" transform="translate(-140.152 -252.739)" opacity="0.1"/>
  <path id="Path_484" data-name="Path 484" d="M228.136,448.66s-8.414,5.289-13.376,4.428c0,0,11.578,2.3,13.376,1.082l-5.178-1.442S228.713,449.689,228.136,448.66Z" transform="translate(-140.868 -253.855)" opacity="0.1"/>
  <path id="Path_485" data-name="Path 485" d="M194.251,306.61a8.76,8.76,0,0,0-7.077,1.337c-1.442,1.135-2.4,2.885-4.024,3.712a23.682,23.682,0,0,1-2.63.928,7.587,7.587,0,0,0-4.63,8.174c.255,1.442.923,2.741,1.25,4.145a16.2,16.2,0,0,1-.567,7.635,80.342,80.342,0,0,1-8.005,19.824,2.077,2.077,0,0,0-.4,1.332,1.923,1.923,0,0,0,.481.851c3.322,3.846,8.731,5.159,13.809,5.332a10.458,10.458,0,0,0,5.472-.909,8.271,8.271,0,0,0,2.668-2.447,12.982,12.982,0,0,0,2.491-8.371c-.139-2.4-.962-4.851-.341-7.183a1.923,1.923,0,0,1,.433-.88c.548-.558,1.442-.413,2.231-.5,2.111-.245,3.476-2.471,3.726-4.577s-.279-4.236-.288-6.356a13.314,13.314,0,0,1,2.5-7.828,8.439,8.439,0,0,0,1.837-3.13c.3-1.514-.582-2.63-1.341-3.846-1.178-1.866-1.755-4.044-3.548-5.467A9.578,9.578,0,0,0,194.251,306.61Z" transform="translate(-116.676 -179.993)" opacity="0.1"/>
  <path id="Path_486" data-name="Path 486" d="M193.076,305.41A8.747,8.747,0,0,0,186,306.752c-1.442,1.13-2.4,2.885-4.024,3.712a23.217,23.217,0,0,1-2.625.923,7.592,7.592,0,0,0-4.635,8.174c.255,1.442.923,2.741,1.255,4.149a16.237,16.237,0,0,1-.567,7.63,80.389,80.389,0,0,1-7.991,19.824,2.034,2.034,0,0,0-.394,1.327,1.851,1.851,0,0,0,.481.851c3.327,3.846,8.731,5.159,13.809,5.332a10.456,10.456,0,0,0,5.472-.9,8.289,8.289,0,0,0,2.668-2.452,12.981,12.981,0,0,0,2.476-8.352c-.139-2.4-.962-4.851-.337-7.188a1.923,1.923,0,0,1,.428-.88c.548-.558,1.442-.413,2.236-.481,2.111-.245,3.471-2.471,3.721-4.582s-.274-4.231-.288-6.356a13.314,13.314,0,0,1,2.5-7.852,8.409,8.409,0,0,0,1.832-3.135c.3-1.515-.577-2.625-1.337-3.846-1.178-1.866-1.755-4.044-3.553-5.462A9.53,9.53,0,0,0,193.076,305.41Z" transform="translate(-116.078 -179.37)" fill="#985c7e"/>
  <path id="Path_487" data-name="Path 487" d="M214.76,492.62s1.846,8.626,4.914,10.977Z" transform="translate(-140.868 -276.679)" opacity="0.1"/>
  <g id="Group_28" data-name="Group 28" transform="translate(50.924 134.584)" opacity="0.1">
    <path id="Path_488" data-name="Path 488" d="M183.822,337.985c-.1-.337-.207-.673-.322-1C183.6,337.317,183.707,337.653,183.822,337.985Z" transform="translate(-175.561 -330.456)"/>
    <path id="Path_489" data-name="Path 489" d="M201.482,323.41a3.121,3.121,0,0,1-.038.813,8.524,8.524,0,0,1-1.837,3.135,13.275,13.275,0,0,0-2.505,7.823c0,2.125.534,4.246.284,6.356s-1.611,4.327-3.721,4.582c-.779.091-1.688-.058-2.231.481a1.924,1.924,0,0,0-.433.88c-.611,2.337.2,4.779.337,7.188a12.982,12.982,0,0,1-2.471,8.352,8.337,8.337,0,0,1-2.668,2.452,10.753,10.753,0,0,1-5.476.9c-4.991-.168-10.3-1.442-13.636-5.149a1.317,1.317,0,0,0-.082.692,1.851,1.851,0,0,0,.481.851c3.327,3.846,8.731,5.159,13.809,5.332a10.456,10.456,0,0,0,5.472-.9,8.337,8.337,0,0,0,2.668-2.452,12.982,12.982,0,0,0,2.476-8.352c-.139-2.4-.962-4.851-.337-7.188a1.923,1.923,0,0,1,.428-.88c.548-.558,1.442-.413,2.236-.481,2.111-.245,3.471-2.471,3.721-4.582s-.274-4.231-.288-6.356a13.314,13.314,0,0,1,2.5-7.823A8.409,8.409,0,0,0,202,325.949a3.563,3.563,0,0,0-.519-2.539Z" transform="translate(-166.989 -323.41)"/>
  </g>
  <ellipse id="Ellipse_58" data-name="Ellipse 58" cx="37.286" cy="6.116" rx="37.286" ry="6.116" transform="translate(370.471 203.911)" fill="#6c63ff" opacity="0.1"/>
  <path id="Path_492" data-name="Path 492" d="M894.139,155.978a20.015,20.015,0,0,0,0-10.222v-4.808s1.74-9.429-6.01-15.477l-5.145-4.534s-2.885-2.471-3.717-2.63a3.777,3.777,0,0,0-.481-.072l-.154-.087a15.481,15.481,0,0,1-1.125-2.37,2.2,2.2,0,0,0,1.832-.625,2.406,2.406,0,0,0,.433-.721h0c.3-.668.346-1.476.6-2.188a5.1,5.1,0,0,1,.962-1.572c-.053.087-.106.168-.154.255.726-.9,1.678-1.683,2.356-2.64a5.749,5.749,0,0,0,.375-.587l-.1.12a13.214,13.214,0,0,0,1.51-5.135,4.634,4.634,0,0,0,.029-1.837,6.122,6.122,0,0,0-.514-1.164c-1.115-2.308-1.091-5.2-2.885-7.044-1.341-1.38-3.366-1.8-5.289-2.039s-3.928-.37-5.573-1.375a6.033,6.033,0,0,0-1.51-.832,1.245,1.245,0,0,0-1.486.553.962.962,0,0,1-.2.4.64.64,0,0,1-.572.034l-2.548-.683.029.13h-.062l.091.4a.224.224,0,0,1,.24.139l-.409.63a6.313,6.313,0,0,1-2.3-.481,1.1,1.1,0,0,0,0,.125h-.034c-.048.721.769,1.188,1.019,1.866a1.413,1.413,0,0,1,0,.914,2.075,2.075,0,0,1-.481.731c-.909.894-2.063.716-3.106,1.284a.663.663,0,0,0-.38.418.322.322,0,0,0-.034.231.538.538,0,0,0,.212.264,4.808,4.808,0,0,0,.99.615l-.3.288A11.414,11.414,0,0,0,864.2,114.87c.038.2.067.4.1.615v.058l.029.274-3.438,1.442a2.736,2.736,0,0,1-2.462-1.582c-.8-1.654-3.62,0-3.62,0s-8.621-.649-11.808.938c0,0-5.145-2.159-5.866-2.3s-1.813-.721-2.322-.577-1.159-.962-1.519-.865-.481-.716-1.664-1-1.6.072-2.885-1.226-11.881-6.4-11.881-6.4l-4.779-3.89L807,96.316l-.091.168c-.029-.12-.063-.245-.1-.375a48.067,48.067,0,0,0-1.88-5.914c-.327-.779-.481-1.765-.909-1.245-.269.313-.731-.37-1.442-.832a1.2,1.2,0,0,0-1.789.519h0c-3.947,6.188-5.361,6.635-3.072,8.9,2.034,2.019,3.39,3.8,5.053,4.327l.2.063a.278.278,0,0,1-.111,0l9.616,11.515s6.952,6.049,11.736,7.991,4.419,2.519,4.419,2.519,14.487,7.342,16.732,7.212,1.813,15.044.87,17.492-2.462,20.155-2.462,20.155-1.443,3.741.072,6.332a39.949,39.949,0,0,1,.034,6.15,21.1,21.1,0,0,0-3.51,9.039,5.179,5.179,0,0,1-.058.548,1.244,1.244,0,0,1-.341.279s.125-.029.322-.1a18.267,18.267,0,0,1-.962,4.327,17.63,17.63,0,0,0-1.183,6.25v11.438l-.957,7.092s-1.159,5.371,0,6.621a3.044,3.044,0,0,1,.635,2.207,4.087,4.087,0,0,0,.74,2.572,1.952,1.952,0,0,1,.481,1.654c-.385,1.245.567,14.487.567,14.487s-.279,3.649-.663,3.846.644,4.193.644,4.193-3.914,3.265-2.918,5l1,1.534-.264.26-.163.163a1.524,1.524,0,0,0-1-.188,37.32,37.32,0,0,1-3.938,3.505,42.672,42.672,0,0,1-6.568,3.12l-3.789.308h-.072s-1.813-.168-.8,2.64,10.1,1.923,10.1,1.923l5.289-.837s9.462.043,12.169-.553c1.135-.255,1.4-.856,1.332-1.471h0l-.029-.029a3.779,3.779,0,0,0-.774-1.591.745.745,0,0,0-.067-.082l.173-1.923c4.015-2.313-1.135-6.866-1.135-6.866a45.9,45.9,0,0,1,2.669-5.082c.909-1.236.9-19.578.9-19.578s.481-6.625-.774-8.174a2.765,2.765,0,0,1,1.351-2.5c.894-.611,3.6-9.02,5.717-16l1.337,8.227s-.288,3.933.582,5.087a1.957,1.957,0,0,1,.356,1.529,6.8,6.8,0,0,0,.2,3.332,2.154,2.154,0,0,0,.7,1.183c.774.385.822,1.755,1.111,2.043s2.077-.409,2.173.644a23.521,23.521,0,0,1,0,2.784l.582,17.083s-.962,1.442-1.159,5.183a6.7,6.7,0,0,1-.7,3.058,1.563,1.563,0,0,0,.144,1.837l.168.192-.716.553a1.563,1.563,0,0,0-.442,1.923,1.543,1.543,0,0,0-.447,1.659,1.931,1.931,0,0,0,.125.269,2.707,2.707,0,0,0-1.442.712,11.827,11.827,0,0,1-2.548,2.567,48.029,48.029,0,0,0-4.068,3.481,5.837,5.837,0,0,1-2.375,1.923,3.842,3.842,0,0,1-.716.212c-1.923.389-1.3,2.38.24,2.692s6.664,1.894,10.65.962a3.722,3.722,0,0,0,2.918-.4,40.187,40.187,0,0,1,5.688-1.923s2.173,0,2.462-.865a3.312,3.312,0,0,0,.125-.841l.063-.058-.058-.053a11.326,11.326,0,0,0-.149-1.923c-.053-.327-.115-.625-.173-.861-.187-.721-.529-1.649-.678-2.043a.725.725,0,0,0,.067-.1c.827-1.4-.548-4.808-.548-4.808a9.19,9.19,0,0,1,1.64-1.923c.774-.572,2.8-15.544,2.8-15.544s-.1-3.846.962-5.568-1.442-12.188-1.442-12.188-1.063-2.4-.673-3.265-.389-4.029-.389-4.029v-3.779a4.154,4.154,0,0,0-.221-1.327,6.31,6.31,0,0,1-.26-3.846c.678-1.726,2.221-12.381,2.221-12.381s-1.207-4.7.558-8.438a8.077,8.077,0,0,1,.481-.87c1.308-2.058.918-5.712.274-8.654-.1-.457-.207-.894-.313-1.313-.048-.178-.1-.346-.139-.514l.207-.087a6.48,6.48,0,0,1,.063-.76,5.289,5.289,0,0,0,3.486-2.4s4.419-4.967,8.332-7.053,4.2-5.111,4.2-5.111c-.582-1.01,1.034-5.111,1.034-5.111ZM878.754,118.293Zm2.659,44.306-4.183,4.851a.1.1,0,0,1,0-.029c-1.087-1.51,1.014-4.895,1.014-4.895l3.457-7.746a4.685,4.685,0,0,1-.452,2.289c-.962,1.3,1.736,3.457,1.736,3.457-1.447-.014-1.591,2.072-1.591,2.072Z" transform="translate(-442.971 -66.551)" fill="url(#linear-gradient)"/>
  <path id="Path_493" data-name="Path 493" d="M808.908,100.728l-2.279,4.428a8.822,8.822,0,0,1-2.125-.442,8.063,8.063,0,0,1-4.991-4.327c-2.039-4.51,1.337-7.424,2.909-8.279s3.029-1.841,4.207.962a48.78,48.78,0,0,1,1.856,5.875C808.745,100.012,808.908,100.728,808.908,100.728Z" transform="translate(-444.14 -68.271)" fill="#cc818c"/>
  <path id="Path_494" data-name="Path 494" d="M951.215,143.659,947.57,149.1s-17.242,8.222-13.943-1.442a21.783,21.783,0,0,0,1.361-9.525v-.058a7.519,7.519,0,0,0-1.351-3.846s16.8-8.6,14.3-2.717a8.175,8.175,0,0,0-.6,3.87,13.183,13.183,0,0,0,1.813,5.371,17.788,17.788,0,0,0,2.058,2.909Z" transform="translate(-513.884 -88.123)" fill="#cc818c"/>
  <path id="Path_495" data-name="Path 495" d="M918.3,327.9s2.481,10.395,1.442,12.111-.962,5.529-.962,5.529-2,14.881-2.769,15.453a9.138,9.138,0,0,0-1.62,1.923s1.361,3.366.543,4.76a1.13,1.13,0,0,1-.543.481c-1.279.539-6-1.851-8.688-3.318a1.481,1.481,0,0,1-.712-.851,1.515,1.515,0,0,1,.438-1.644,1.567,1.567,0,0,1,.438-1.923l.707-.548-.163-.192a1.563,1.563,0,0,1-.144-1.827,6.743,6.743,0,0,0,.688-3.034c.192-3.721,1.144-5.149,1.144-5.149l-.572-16.977a24.388,24.388,0,0,0,0-2.765c-.1-1.048-1.861-.356-2.144-.644s-.337-1.644-1.1-2.029a2.135,2.135,0,0,1-.692-1.173,6.838,6.838,0,0,1-.2-3.313,1.952,1.952,0,0,0-.351-1.519c-.861-1.144-.572-5.053-.572-5.053l-1.317-8.174c-2.1,6.938-4.765,15.294-5.645,15.9a2.75,2.75,0,0,0-1.337,2.481c1.241,1.524.765,8.106.765,8.106s0,18.213-.894,19.453a47.409,47.409,0,0,0-2.635,5.053s5.111,4.548,1.091,6.842l-.043.024c-4.1,2.289-12.587-4.1-12.587-4.1l.885-.885.26-.26-.962-1.529c-.986-1.716,2.885-4.957,2.885-4.957s-1.029-4.005-.649-4.2.649-3.818.649-3.818-.938-13.16-.558-14.4a1.923,1.923,0,0,0-.452-1.644,4.107,4.107,0,0,1-.731-2.553,3.038,3.038,0,0,0-.625-2.192c-1.144-1.24,0-6.582,0-6.582l.962-7.058V300.47a17.787,17.787,0,0,1,1.154-6.308,19.041,19.041,0,0,0,1.039-5.077,21.317,21.317,0,0,1,3.563-9.135c.692-1.058,1.207-1.692,1.207-1.692l30.517-1.2s.481,1.361.962,3.25c.106.413.212.846.308,1.3.639,2.933,1.024,6.563-.269,8.611a6.786,6.786,0,0,0-.481.861c-1.745,3.717-.553,8.385-.553,8.385s-1.524,10.578-2.193,12.3a6.175,6.175,0,0,0,.26,3.8,4.226,4.226,0,0,1,.216,1.317v3.755s.765,3.144.385,4.005S918.3,327.9,918.3,327.9Z" transform="translate(-486.191 -164.761)" fill="#444053"/>
  <path id="Path_496" data-name="Path 496" d="M959.262,295.7a7.9,7.9,0,0,0-.481.861l-1.716-.1c.163-.885-1-9.179-1-9.179l3.462-.2C960.166,290.042,960.555,293.677,959.262,295.7Z" transform="translate(-525.749 -169.968)" opacity="0.1"/>
  <path id="Path_497" data-name="Path 497" d="M959.852,295.151a6.783,6.783,0,0,0-.481.861l-1.721-.1c.168-.885-1-9.183-1-9.183l3.457-.192C960.761,289.473,961.145,293.1,959.852,295.151Z" transform="translate(-526.055 -169.683)" fill="#444053"/>
  <path id="Path_498" data-name="Path 498" d="M959.852,295.151a6.783,6.783,0,0,0-.481.861l-1.721-.1c.168-.885-1-9.183-1-9.183l3.457-.192C960.761,289.473,961.145,293.1,959.852,295.151Z" transform="translate(-526.055 -169.683)" opacity="0.05"/>
  <path id="Path_499" data-name="Path 499" d="M942.063,461.475a1.13,1.13,0,0,1-.543.481c-1.279.539-6-1.851-8.688-3.318a1.481,1.481,0,0,1-.712-.851c1.529-.279,2.534,1.442,2.534,1.442a2.255,2.255,0,0,1,3.145.764c1.313,1.923,4.125,1.116,4.125,1.116S941.981,461.239,942.063,461.475Z" transform="translate(-513.319 -258.578)" opacity="0.1"/>
  <path id="Path_500" data-name="Path 500" d="M929.82,467.623c-.288.856-2.433.856-2.433.856a45.682,45.682,0,0,0-5.558,1.957,3.8,3.8,0,0,1-2.885.4c-3.938.909-8.991-.664-10.515-.962s-2.125-2.289-.24-2.668a3.768,3.768,0,0,0,.707-.216,5.741,5.741,0,0,0,2.346-1.923,48.627,48.627,0,0,1,4.015-3.462,11.616,11.616,0,0,0,2.519-2.548c2.241-1.981,3.846.74,3.846.74a2.255,2.255,0,0,1,3.144.764c1.313,1.923,4.125,1.115,4.125,1.115s.481,1.289.74,2.216c.058.236.12.534.173.861A7.525,7.525,0,0,1,929.82,467.623Z" transform="translate(-500.283 -258.88)" fill="#ff748f"/>
  <circle id="Ellipse_59" data-name="Ellipse 59" cx="0.264" cy="0.264" r="0.264" transform="translate(422.715 202.185)" fill="#575988"/>
  <circle id="Ellipse_60" data-name="Ellipse 60" cx="0.264" cy="0.264" r="0.264" transform="translate(420.474 204.282)" fill="#575988"/>
  <circle id="Ellipse_61" data-name="Ellipse 61" cx="0.264" cy="0.264" r="0.264" transform="translate(418.195 206.166)" fill="#575988"/>
  <circle id="Ellipse_62" data-name="Ellipse 62" cx="0.264" cy="0.264" r="0.264" transform="translate(419.373 205.325)" fill="#575988"/>
  <circle id="Ellipse_63" data-name="Ellipse 63" cx="0.264" cy="0.264" r="0.264" transform="translate(421.643 203.166)" fill="#575988"/>
  <path id="Path_501" data-name="Path 501" d="M929.82,474.556c-.288.856-2.433.856-2.433.856a45.684,45.684,0,0,0-5.558,1.957,3.8,3.8,0,0,1-2.885.4c-3.938.909-8.991-.664-10.515-.962s-2.125-2.289-.24-2.668a3.765,3.765,0,0,0,.707-.216,18.272,18.272,0,0,0,5.159.962c3.885.163,6.962,0,6.962,0l3.933-1.265a6.582,6.582,0,0,1,2.433-.885,6.251,6.251,0,0,0,2.4-1.048,7.526,7.526,0,0,1,.034,2.866Z" transform="translate(-500.283 -265.812)" fill="#dce6f2"/>
  <path id="Path_502" data-name="Path 502" d="M933.384,478.917a3.245,3.245,0,0,1-.654-.067l.058-.279a4.13,4.13,0,0,0,2.356-.327,11.3,11.3,0,0,0,1.043-.481,12.123,12.123,0,0,1,1.24-.543l.389-.135c.216-.072.433-.144.639-.236.12-.048.236-.106.351-.159a3.914,3.914,0,0,1,.885-.337,4.111,4.111,0,0,1,.481-.062,4.092,4.092,0,0,0,.433-.053,3.76,3.76,0,0,0,.827-.308,4.012,4.012,0,0,1,.89-.327l.212-.038a1.014,1.014,0,0,0,.615-.226l.207.2a1.284,1.284,0,0,1-.779.313l-.2.034a3.758,3.758,0,0,0-.827.308,4.018,4.018,0,0,1-.889.327,3.171,3.171,0,0,1-.481.058,4.186,4.186,0,0,0-.447.058,3.632,3.632,0,0,0-.817.317l-.361.163c-.221.091-.442.168-.664.24l-.38.135c-.413.154-.822.346-1.221.529s-.7.332-1.058.481a5.086,5.086,0,0,1-1.851.418Z" transform="translate(-513.636 -267.707)" fill="#575988" opacity="0.5"/>
  <path id="Path_503" data-name="Path 503" d="M936,380.757a6.935,6.935,0,0,1,5.366-2.837,18.369,18.369,0,0,0,4.837-.38,12.008,12.008,0,0,1-3.669,1.442A61.993,61.993,0,0,0,936,380.757Z" transform="translate(-515.334 -216.93)" opacity="0.1"/>
  <path id="Path_504" data-name="Path 504" d="M938.38,384.073a7.971,7.971,0,0,1,2.813-1.289c1.024-.048,1.923-.144,1.923-.144a5.432,5.432,0,0,1-1.572.765C940.669,383.645,938.38,384.073,938.38,384.073Z" transform="translate(-516.569 -219.578)" opacity="0.1"/>
  <path id="Path_505" data-name="Path 505" d="M939.17,387.4s2.7.216,2.721.933" transform="translate(-516.979 -222.049)" opacity="0.1"/>
  <path id="Path_506" data-name="Path 506" d="M887,298.334c.139.024,2.543-2.5,2.712-3.505a2.452,2.452,0,0,1,1.048-1.539s1.553.62.168,2.519A7.7,7.7,0,0,1,887,298.334Z" transform="translate(-489.893 -173.187)" opacity="0.1"/>
  <path id="Path_507" data-name="Path 507" d="M948.374,131.452c-.548,1.3-1.034,1.394-.928,2.654a9.558,9.558,0,0,1-2.183,1.716c-1.707,1.014-3.563,3-5.688,3a11.275,11.275,0,0,1-4.154-.784,7.519,7.519,0,0,0-1.351-3.846S950.864,125.572,948.374,131.452Z" transform="translate(-514.331 -88.095)" opacity="0.1"/>
  <path id="Path_508" data-name="Path 508" d="M944.612,111.871A11.371,11.371,0,1,1,933.241,100.5a11.371,11.371,0,0,1,11.371,11.371Z" transform="translate(-507.997 -73.091)" fill="#cc818c"/>
  <path id="Path_509" data-name="Path 509" d="M951.215,153.029l-3.644,5.438s-17.242,8.222-13.943-1.442a21.783,21.783,0,0,0,1.361-9.525h.029a9.016,9.016,0,0,1,.341,2.192c.053,1.481.091,3.366,3.774,3.981a10.287,10.287,0,0,0,10.015-3.563A17.791,17.791,0,0,0,951.215,153.029Z" transform="translate(-513.884 -97.494)" opacity="0.1"/>
  <path id="Path_510" data-name="Path 510" d="M814.771,109.022l-2.279,4.428a8.822,8.822,0,0,1-2.125-.442l-.2-.236c.933.356,4.077-5.582,4.077-5.582l.1.082C814.608,108.305,814.771,109.022,814.771,109.022Z" transform="translate(-450.003 -76.565)" opacity="0.1"/>
  <path id="Path_511" data-name="Path 511" d="M927.774,280.331c-7.361,3.2-32.834.481-32.834.481a3.211,3.211,0,0,0,.13-.832c.692-1.058,1.207-1.692,1.207-1.692l30.517-1.2S927.288,278.441,927.774,280.331Z" transform="translate(-494.015 -164.776)" opacity="0.1"/>
  <path id="Path_512" data-name="Path 512" d="M871.5,127.147,868.1,128.59a2.712,2.712,0,0,1-2.433-1.577c-.784-1.644-3.572,0-3.572,0s-8.515-.644-11.66.933c0,0-5.077-2.149-5.77-2.289s-1.789-.716-2.289-.572-1.144-.933-1.5-.861-.5-.716-1.649-1-1.572.072-2.861-1.216-11.727-6.366-11.727-6.366l-4.722-3.846-5.005-4.005s-3.149,5.933-4.077,5.577l9.51,11.443s6.866,6.01,11.587,7.938,4.361,2.5,4.361,2.5,14.309,7.294,16.525,7.154,1.789,14.948.856,17.381-2.428,20.025-2.428,20.025-1.442,3.717.067,6.294c0,0,.361,5.289,0,6.222,0,0,25.632,2.741,32.9-.481,0,0,1.072-11.871,0-13.376s1-4.861,1-4.861l4.544-10.251,11.145-11.236s1.716-9.371-5.933-15.386l-5.082-4.505s-2.842-2.457-3.669-2.611-.524,0-.524,0a10.287,10.287,0,0,1-10.1,3.683c-3.683-.62-3.721-2.5-3.774-3.981a9.018,9.018,0,0,0-.336-2.178Z" transform="translate(-450.351 -76.876)" fill="#67647e"/>
  <path id="Path_513" data-name="Path 513" d="M945.661,228.13s-15.737.644-18.881,5.582c0,0,4.077-1.923,7.722-1.361S945.661,228.13,945.661,228.13Z" transform="translate(-510.546 -139.357)" opacity="0.1"/>
  <path id="Path_514" data-name="Path 514" d="M929.9,260.142s7.438.481,9.015-1.072,1.577-2.5,1.577-2.5Z" transform="translate(-512.166 -154.122)" opacity="0.1"/>
  <path id="Path_515" data-name="Path 515" d="M966.542,196.6s-6.294,7.438,1.361,10.655Z" transform="translate(-529.927 -122.986)" opacity="0.1"/>
  <path id="Path_516" data-name="Path 516" d="M891.67,166.7s2.289,4.669,3.433,4.981Z" transform="translate(-492.317 -107.462)" opacity="0.1"/>
  <path id="Path_517" data-name="Path 517" d="M875.61,162.53s5.722,5.149,6.794,5.649C882.4,168.179,876.466,162.53,875.61,162.53Z" transform="translate(-483.979 -105.297)" opacity="0.1"/>
  <path id="Path_518" data-name="Path 518" d="M919.673,152.27s-5.51,8.222-1.923,13.232C917.721,165.5,915.74,159.564,919.673,152.27Z" transform="translate(-505.228 -99.97)" opacity="0.1"/>
  <path id="Path_519" data-name="Path 519" d="M932.671,276.9l-1.683,1.582-.236.221-1.947,1.841c-.144.106-.279.212-.418.308-7.933,5.688-9.525-2.952-9.525-2.952s-3.505,2.289-4.005.428,8.174-4.505,9.438-4.361a1.676,1.676,0,0,0,.346,0,5.436,5.436,0,0,0,1.779-.63c.13-.067.26-.135.385-.207a14.262,14.262,0,0,0,1.284-.808Z" transform="translate(-504.346 -162.3)" fill="#cc818c"/>
  <path id="Path_520" data-name="Path 520" d="M948.711,111.869a11.371,11.371,0,0,1-5.56,9.776,6.635,6.635,0,0,1-.412-.828c-.409-.962-.659-1.966-1.067-2.918a9.108,9.108,0,0,0-1.923-2.784,1.216,1.216,0,0,0-.481-.351,1.38,1.38,0,0,0-1.043.288,4.721,4.721,0,0,1-1.587.7,1.688,1.688,0,0,1-1.591-.481,2.386,2.386,0,0,1-.25-1.986,24.653,24.653,0,0,0,.74-4.438,4.378,4.378,0,0,0-1.875-3.875c-1.154-.654-2.587-.481-3.87-.841a4.161,4.161,0,0,1-.582-.2,11.376,11.376,0,0,1,19.516,7.943Z" transform="translate(-511.808 -73.09)" opacity="0.1"/>
  <path id="Path_521" data-name="Path 521" d="M927.169,97.338c-.207.111-.433.308-.37.539a.529.529,0,0,0,.207.264,4.923,4.923,0,0,0,1.8.923c1.284.346,2.721.183,3.875.841a4.369,4.369,0,0,1,1.875,3.87,25.932,25.932,0,0,1-.745,4.438,2.4,2.4,0,0,0,.255,1.991,1.7,1.7,0,0,0,1.592.481,4.687,4.687,0,0,0,1.582-.692,1.37,1.37,0,0,1,1.043-.288,1.269,1.269,0,0,1,.51.346,9.03,9.03,0,0,1,1.923,2.789c.414.962.664,1.962,1.067,2.918a4.707,4.707,0,0,0,1.923,2.375,2.4,2.4,0,0,0,2.885-.3c.663-.731.644-1.837.962-2.774.567-1.62,2.154-2.64,3.144-4.039a12.414,12.414,0,0,0,1.726-5.462,4.587,4.587,0,0,0,.029-1.827,6.628,6.628,0,0,0-.5-1.154c-1.106-2.289-1.082-5.169-2.846-7-1.327-1.37-3.337-1.789-5.231-2.019s-3.88-.375-5.505-1.37a6.059,6.059,0,0,0-1.49-.827,1.226,1.226,0,0,0-1.466.548.961.961,0,0,1-.2.4.625.625,0,0,1-.558.034l-2.519-.678.288,1.269a6.289,6.289,0,0,1-2.673-.481c-.048.716.76,1.183,1.01,1.851a1.712,1.712,0,0,1-.481,1.745C929.342,96.953,928.2,96.775,927.169,97.338Z" transform="translate(-510.551 -68.309)" fill="#585268"/>
  <path id="Path_522" data-name="Path 522" d="M892.6,455.183l-.1,1.144-.043.024c-4.1,2.289-12.587-4.1-12.587-4.1l.885-.885a1.539,1.539,0,0,1,.385,1.192l1.736.1,2.072,2.241s5.611.649,7.13.284Z" transform="translate(-486.191 -255.262)" opacity="0.1"/>
  <path id="Path_523" data-name="Path 523" d="M875.129,461.378c-2.668.591-12.02.548-12.02.548l-5.221.832s-8.986.861-9.986-1.923.784-2.62.784-2.62h.067l3.741-.3a42.1,42.1,0,0,0,6.486-3.1,37.423,37.423,0,0,0,3.885-3.481s1.563-.3,1.534,1.5l1.736.1,2.072,2.236s5.611.654,7.13.288h.524l-.24,2.765.067.086C876.019,458.734,877.514,460.844,875.129,461.378Z" transform="translate(-469.435 -255.231)" fill="#ff748f"/>
  <circle id="Ellipse_64" data-name="Ellipse 64" cx="0.264" cy="0.264" r="0.264" transform="translate(395.746 198.935)" fill="#575988"/>
  <circle id="Ellipse_65" data-name="Ellipse 65" cx="0.264" cy="0.264" r="0.264" transform="translate(389.025 201.854)" fill="#575988"/>
  <circle id="Ellipse_66" data-name="Ellipse 66" cx="0.264" cy="0.264" r="0.264" transform="translate(385.563 202.907)" fill="#575988"/>
  <circle id="Ellipse_67" data-name="Ellipse 67" cx="0.264" cy="0.264" r="0.264" transform="translate(390.789 201.296)" fill="#575988"/>
  <circle id="Ellipse_68" data-name="Ellipse 68" cx="0.264" cy="0.264" r="0.264" transform="translate(387.289 202.382)" fill="#575988"/>
  <circle id="Ellipse_69" data-name="Ellipse 69" cx="0.264" cy="0.264" r="0.264" transform="translate(392.573 200.469)" fill="#575988"/>
  <circle id="Ellipse_70" data-name="Ellipse 70" cx="0.264" cy="0.264" r="0.264" transform="translate(394.338 199.704)" fill="#575988"/>
  <path id="Path_524" data-name="Path 524" d="M875.129,468.832c-2.668.591-12.02.548-12.02.548l-5.221.832s-8.986.861-9.986-1.923.784-2.62.784-2.62h.067a4.807,4.807,0,0,0,3.981,1.625l6.462.264,6.7-.481s6.25-.192,7.294-.4a15.162,15.162,0,0,0,2.5-.918C876.019,466.187,877.514,468.3,875.129,468.832Z" transform="translate(-469.435 -262.685)" fill="#dce6f2"/>
  <path id="Path_525" data-name="Path 525" d="M868.858,471.193a4.216,4.216,0,0,1-1.058-.13l.1-.26a5.187,5.187,0,0,0,2.664-.12c.317-.082.63-.173.962-.269a10.9,10.9,0,0,1,4.64-.524h.207a43.919,43.919,0,0,0,8.582-.385,3.193,3.193,0,0,0,1.837-.736l.207.2a3.482,3.482,0,0,1-2,.817,44.574,44.574,0,0,1-8.654.385h-.2a14.038,14.038,0,0,0-2.841.082,14.736,14.736,0,0,0-1.707.428c-.317.1-.635.192-.962.274a7.147,7.147,0,0,1-1.774.236Z" transform="translate(-479.924 -264.296)" fill="#575988" opacity="0.5"/>
  <path id="Path_526" data-name="Path 526" d="M945.6,276.9l-1.683,1.582-4.183-5.351a14.244,14.244,0,0,0,1.284-.808Z" transform="translate(-517.27 -162.3)" opacity="0.1"/>
  <path id="Path_527" data-name="Path 527" d="M964.233,190.5l3.289,4.577v4.808a20.023,20.023,0,0,1,0,10.159l.168,4.433s-1.6,4.077-1.024,5.077c0,0-.289,3-4.149,5.082s-8.227,6.972-8.227,6.972-1.644,3.149-6.077,2.433l-4.221,1.789-4.861-6.222,6.577-3.577s2.289-3.077,3.649-2.933l5.577-6.5s.144-2.072,1.572-2.072c0,0-2.644-2.144-1.716-3.433s.144-7.01.144-7.01Z" transform="translate(-516.958 -119.819)" fill="#67647e"/>
  <path id="Path_528" data-name="Path 528" d="M978.55,233.759s7.51-.139,8.438,1.789S980.839,232.687,978.55,233.759Z" transform="translate(-537.425 -142.197)" opacity="0.1"/>
  <path id="Path_529" data-name="Path 529" d="M941.365,279.416a1.979,1.979,0,0,1-.029.375,2.529,2.529,0,0,1-2.366,2.149h-.135a2.524,2.524,0,0,1-2.524-2.524,2.587,2.587,0,0,1,.139-.822,4.353,4.353,0,0,1-1.226-3.544,5.438,5.438,0,0,0,1.779-.63,11.827,11.827,0,0,0,1.245,2.543,2.4,2.4,0,0,1,.587-.072,2.524,2.524,0,0,1,2.529,2.524Z" transform="translate(-514.928 -163.39)" opacity="0.1"/>
  <path id="Path_530" data-name="Path 530" d="M937.538,273.26s-1.693.38-1.693.688-.38,3.1,1.476,4.245,1.673-1.6,1.673-1.6S937.394,274.14,937.538,273.26Z" transform="translate(-515.237 -162.788)" fill="#575988"/>
  <circle id="Ellipse_71" data-name="Ellipse 71" cx="2.529" cy="2.529" r="2.529" transform="translate(421.667 113.496)" fill="#e4aab4"/>
  <circle id="Ellipse_72" data-name="Ellipse 72" cx="2.168" cy="2.168" r="2.168" transform="translate(422.027 113.857)" fill="#dce6f2"/>
  <path id="Path_531" data-name="Path 531" d="M922.817,286.84a12.525,12.525,0,0,0,12.208,1.625v2.144s-4.577,3.144-8.727,1.24S922.817,286.84,922.817,286.84Z" transform="translate(-508.468 -169.839)" opacity="0.1"/>
  <path id="Path_532" data-name="Path 532" d="M922.817,285.65a12.513,12.513,0,0,0,12.208,1.611v2.144s-4.577,3.144-8.727,1.24S922.817,285.65,922.817,285.65Z" transform="translate(-508.468 -169.221)" opacity="0.1"/>
  <path id="Path_533" data-name="Path 533" d="M922.817,285.65a12.513,12.513,0,0,0,12.208,1.611v2.144s-4.577,3.144-8.727,1.24S922.817,285.65,922.817,285.65Z" transform="translate(-508.468 -169.221)" fill="#444053"/>
  <path id="Path_534" data-name="Path 534" d="M923.119,285.65a12.525,12.525,0,0,0,12.208,1.625v2.144s-4.592,3.13-8.727,1.24S923.119,285.65,923.119,285.65Z" transform="translate(-508.626 -169.221)" opacity="0.05"/>
  <path id="Path_535" data-name="Path 535" d="M888,451.32s7.154,1.313,8.2,1.6-.289.789-.289.789S889.361,452.536,888,451.32Z" transform="translate(-490.412 -255.236)" opacity="0.1"/>
  <path id="Path_536" data-name="Path 536" d="M887.61,439.525c.115,0,4.861-1.337,5.885-3.625" transform="translate(-490.21 -247.23)" opacity="0.1"/>
  <path id="Path_537" data-name="Path 537" d="M902,386.507s1.923,2.529,3.164,2.457S903.13,386.411,902,386.507Z" transform="translate(-497.681 -221.584)" opacity="0.1"/>
  <path id="Path_538" data-name="Path 538" d="M904.22,395.24s.808,1.789,2,1.216" transform="translate(-498.833 -226.119)" opacity="0.1"/>
  <path id="Path_539" data-name="Path 539" d="M913.59,313.549l5.072,13.376s.716-8.606-.8-11.184a4.467,4.467,0,0,0-4.274-2.192Z" transform="translate(-503.698 -183.695)" opacity="0.05"/>
  <g id="Group_29" data-name="Group 29" transform="translate(416.186 23.456)" opacity="0.1">
    <path id="Path_540" data-name="Path 540" d="M938.631,92.689l-.043-.192-.817-.216.091.4A5.859,5.859,0,0,0,938.631,92.689Z" transform="translate(-932.438 -92.28)"/>
    <path id="Path_541" data-name="Path 541" d="M933.8,96.783l.087-.077a1.707,1.707,0,0,0,.481-1.741,2.36,2.36,0,0,0-.4-.649,6.252,6.252,0,0,1-1.178-.346c-.048.716.76,1.178,1.01,1.851a1.443,1.443,0,0,1,0,.962Z" transform="translate(-929.85 -93.157)"/>
    <path id="Path_542" data-name="Path 542" d="M944.143,123.894a4.726,4.726,0,0,1-1.923-2.375c-.409-.962-.654-1.971-1.067-2.918a8.966,8.966,0,0,0-1.923-2.784,1.217,1.217,0,0,0-.5-.351,1.365,1.365,0,0,0-1.043.288,4.808,4.808,0,0,1-1.587.7,1.716,1.716,0,0,1-1.591-.481,2.386,2.386,0,0,1-.25-1.986,24.715,24.715,0,0,0,.745-4.443,4.294,4.294,0,0,0-1.88-3.846c-1.154-.659-2.587-.481-3.846-.841a4.885,4.885,0,0,1-1.8-.923l-.1-.091a3.081,3.081,0,0,0-.313.149c-.207.111-.428.308-.37.534a.572.572,0,0,0,.212.269,4.952,4.952,0,0,0,1.8.918c1.284.351,2.717.188,3.87.846a4.353,4.353,0,0,1,1.88,3.846,25.849,25.849,0,0,1-.745,4.438,2.393,2.393,0,0,0,.25,1.986,1.693,1.693,0,0,0,1.592.481,4.808,4.808,0,0,0,1.587-.692,1.39,1.39,0,0,1,1.043-.293,1.264,1.264,0,0,1,.481.351,9.079,9.079,0,0,1,1.923,2.784c.414.962.659,1.966,1.067,2.918a4.717,4.717,0,0,0,1.923,2.4,2.434,2.434,0,0,0,2.885-.3,2.272,2.272,0,0,0,.428-.716A2.452,2.452,0,0,1,944.143,123.894Z" transform="translate(-926.681 -98.282)"/>
    <path id="Path_543" data-name="Path 543" d="M971.54,134.532c.716-.9,1.654-1.673,2.327-2.625a6.7,6.7,0,0,0,.37-.587A23.824,23.824,0,0,0,971.54,134.532Z" transform="translate(-949.971 -112.549)"/>
  </g>
  <g id="Group_31" data-name="Group 31" transform="translate(275.618 31.928)" opacity="0.1">
    <path id="Path_544" data-name="Path 544" d="M754.026,109.9H640.268a5.962,5.962,0,0,0-5.948,5.943v71.875a5.962,5.962,0,0,0,5.948,5.943H729.5s2.313,12.275-5.289,13.592c0,0,17.011,1.221,14.039-13.592h15.766a5.957,5.957,0,0,0,5.943-5.943V115.843a5.957,5.957,0,0,0-5.938-5.943Z" transform="translate(-634.32 -109.9)"/>
    <g id="Group_30" data-name="Group 30" transform="translate(16.746 19.078)" opacity="0.2">
      <rect id="Rectangle_301" data-name="Rectangle 301" width="92.151" height="5.616" rx="2.808"/>
      <rect id="Rectangle_302" data-name="Rectangle 302" width="76.039" height="5.616" rx="2.808" transform="translate(0 25.098)"/>
      <rect id="Rectangle_303" data-name="Rectangle 303" width="54.739" height="5.616" rx="2.808" transform="translate(0 12.549)"/>
    </g>
  </g>
  <path id="Path_545" data-name="Path 545" d="M757.116,107.83H643.357a5.967,5.967,0,0,0-5.947,5.948v71.875a5.962,5.962,0,0,0,5.947,5.943h89.237s2.313,12.275-5.289,13.592c0,0,17.011,1.221,14.039-13.592h15.766a5.957,5.957,0,0,0,5.943-5.943V113.778a5.962,5.962,0,0,0-5.938-5.948Z" transform="translate(-360.307 -76.897)" fill="#fff"/>
  <g id="Group_32" data-name="Group 32" transform="translate(293.85 50.011)" opacity="0.2">
    <rect id="Rectangle_304" data-name="Rectangle 304" width="92.151" height="5.616" rx="2.808" transform="translate(0 0)" fill="#6c63ff"/>
    <rect id="Rectangle_305" data-name="Rectangle 305" width="76.039" height="5.616" rx="2.808" transform="translate(0 25.103)" fill="#6c63ff"/>
    <rect id="Rectangle_306" data-name="Rectangle 306" width="54.739" height="5.616" rx="2.808" transform="translate(0 12.554)" fill="#6c63ff"/>
  </g>
  <path id="Path_546" data-name="Path 546" d="M137.1,596.48s1.712,2.241-.793,5.625-4.572,6.25-3.736,8.352c0,0,3.779-6.284,6.856-6.371S140.48,600.259,137.1,596.48Z" transform="translate(-98.095 -330.603)" fill="#6c63ff"/>
  <path id="Path_547" data-name="Path 547" d="M137.2,596.48a2.827,2.827,0,0,1,.346.7c3,3.529,4.6,6.818,1.716,6.9-2.688.077-5.909,4.88-6.683,6.1a.877.877,0,0,0,.091.274s3.779-6.284,6.856-6.371S140.585,600.259,137.2,596.48Z" transform="translate(-98.2 -330.603)" opacity="0.1"/>
  <path id="Path_548" data-name="Path 548" d="M148.384,601.869c0,.788-.087,1.442-.2,1.442s-.2-.639-.2-1.442.111-.418.221-.418S148.384,601.08,148.384,601.869Z" transform="translate(-106.201 -333.135)" fill="#ffd037"/>
  <path id="Path_549" data-name="Path 549" d="M149.627,603.8c-.692.38-1.3.606-1.351.51s.481-.481,1.159-.856.423-.1.481,0S150.32,603.424,149.627,603.8Z" transform="translate(-106.348 -334.124)" fill="#ffd037"/>
  <path id="Path_550" data-name="Path 550" d="M119.2,596.48s-1.712,2.241.793,5.625,4.572,6.25,3.736,8.352c0,0-3.779-6.284-6.856-6.371S115.813,600.259,119.2,596.48Z" transform="translate(-89.256 -330.603)" fill="#6c63ff"/>
  <path id="Path_551" data-name="Path 551" d="M119.2,596.48a2.827,2.827,0,0,0-.346.7c-3.005,3.529-4.6,6.818-1.716,6.9,2.688.077,5.909,4.88,6.683,6.1-.024.091-.058.183-.091.274,0,0-3.779-6.284-6.856-6.371S115.813,600.259,119.2,596.48Z" transform="translate(-89.256 -330.603)" opacity="0.1"/>
  <ellipse id="Ellipse_73" data-name="Ellipse 73" cx="17.924" cy="2.75" rx="17.924" ry="2.75" transform="translate(16.547 291.504)" fill="#6c63ff" opacity="0.1"/>
  <path id="Path_554" data-name="Path 554" d="M132.049,618.143l-.087.7-.12.99-.053.414-.12.986-.048.414-.12.99-1.375,11.246c-.12,1-1.76,1.789-3.741,1.789H119.24c-1.981,0-3.616-.784-3.741-1.789l-1.375-11.241-.12-.991-.048-.413-.12-.986-.053-.413-.12-.99-.087-.7c-.067-.567.822-1.048,1.923-1.048h14.573C131.207,617.1,132.1,617.576,132.049,618.143Z" transform="translate(-88.332 -341.308)" fill="#65617d"/>
  <path id="Path_555" data-name="Path 555" d="M70.975,577.23l-.12.99H52.82l-.12-.99Z" transform="translate(-27.369 -299.698)" fill="#9d9cb5"/>
  <path id="Path_556" data-name="Path 556" d="M70.989,580.15l-.12.986H53.175l-.125-.986Z" transform="translate(-27.551 -301.214)" fill="#9d9cb5"/>
  <path id="Path_557" data-name="Path 557" d="M71,583.06l-.12.99H53.53l-.12-.99Z" transform="translate(-27.738 -302.725)" fill="#9d9cb5"/>
  <g id="Group_34" data-name="Group 34" transform="translate(227.576 175.909)" opacity="0.1">
    <path id="Path_558" data-name="Path 558" d="M664.116,409.36H540.843A6.462,6.462,0,0,0,534.4,415.8v77.89a6.462,6.462,0,0,0,6.443,6.443h96.7s2.505,13.3-5.726,14.727c0,0,18.429,1.322,15.208-14.727h17.088a6.462,6.462,0,0,0,6.443-6.443V415.8a6.462,6.462,0,0,0-6.443-6.443Z" transform="translate(-534.4 -409.36)"/>
    <g id="Group_33" data-name="Group 33" transform="translate(18.146 34.276)" opacity="0.2">
      <rect id="Rectangle_307" data-name="Rectangle 307" width="99.863" height="6.087" rx="3.043" transform="translate(0 13.602)"/>
      <rect id="Rectangle_308" data-name="Rectangle 308" width="43.301" height="6.087" rx="3.043"/>
    </g>
  </g>
  <path id="Path_559" data-name="Path 559" d="M661.9,407.13H538.6a6.462,6.462,0,0,0-6.443,6.443v77.89a6.462,6.462,0,0,0,6.443,6.443h96.7s2.505,13.3-5.726,14.732c0,0,18.434,1.322,15.213-14.732H661.9a6.462,6.462,0,0,0,6.443-6.443v-77.89a6.462,6.462,0,0,0-6.443-6.443Z" transform="translate(-305.661 -232.293)" fill="#fff"/>
  <g id="Group_35" data-name="Group 35" transform="translate(244.649 209.114)" opacity="0.2">
    <rect id="Rectangle_309" data-name="Rectangle 309" width="99.863" height="6.087" rx="3.043" transform="translate(0 13.602)" fill="#6c63ff"/>
    <rect id="Rectangle_310" data-name="Rectangle 310" width="43.301" height="6.087" rx="3.043" fill="#6c63ff"/>
  </g>
  <path id="Path_560" data-name="Path 560" d="M645.056,594.309c-.582-2.467-.962-4.635-.962-4.635a9.554,9.554,0,0,0-1.072-4.707v-.673h0v-4.967a16.649,16.649,0,0,1,1.255-2.6c.894-1.563,0-7.284,0-7.284s-3.318-8.068-2.51-13.184-6.813-22.728-6.813-22.728a22.359,22.359,0,0,1,.716-5.029,3.893,3.893,0,0,0,.1-1.053,1.124,1.124,0,0,0,0-.13v.043c-.115-3.366-2.784-9.7-2.784-9.7l.361-12.054s1.7-7.111-1.077-16.655c-.962-3.327-1.591-6-1.986-8.049-.043-.236-.086-.481-.125-.673,5.722-.87,10.1-1.6,10.1-1.6s-3.308-13.881-5.549-16.285-4.029-10.1-4.029-10.1-1.168-9.8.716-12.664,2.149-7.8,2.149-7.8,4.327-3.125,4.842-4.51a23.87,23.87,0,0,0,1.442-6.159c0-1.649-.539-3.125-.361-3.991s-1.255-4.164-.539-5.726a4.205,4.205,0,0,0,.288-1.5v-.043h0a21.258,21.258,0,0,0-.38-4.068,11.539,11.539,0,0,0-4.255-2.274l-.1-.375-.24-.962c-.144-.1-.284-.178-.423-.255v-.356l-.043-1.409.678-3.164c1.322-5.51-6.029-6.332-6.029-6.332a3.847,3.847,0,0,0-2.082-1.822c-1.481-.519-.245,8.284.447,8.847a31.937,31.937,0,0,1,2.885,4.539h0l.125.226a2.7,2.7,0,0,0-.337.351l.279,1.923.043.293a8.006,8.006,0,0,0-1.173,2,4.271,4.271,0,0,1,1.077,3.125,9.5,9.5,0,0,0,.442,3.813c-.077-.091-1.024-1.115-1.966-.865s-3.587,1.043-3.587,1.043-1.971.346-1.789.779-1.346,2.342-1.346,2.342l-5.289-5.02c-.048-.149-.106-.3-.154-.457a12.591,12.591,0,0,1-.481-2.2,12.573,12.573,0,0,0,1.692-.539,3.664,3.664,0,0,0,1.443-.938,5.705,5.705,0,0,0,.851-2.284,33.039,33.039,0,0,1,1.966-4.385,14.232,14.232,0,0,0,1.058-7.871,5.2,5.2,0,0,0-.813-2.3c-.865-1.192-2.433-1.673-3.577-2.625s-1.875-2.4-3.2-3.111a6.375,6.375,0,0,0-4.024-.346,21.681,21.681,0,0,0-7.505,2.731,3.864,3.864,0,0,1-2.51.827,3.383,3.383,0,0,1-1.813-1.332.088.088,0,0,1,.024-.072l-.058-.067a9.313,9.313,0,0,0-.784,3.928,5.585,5.585,0,0,0,.024.635v.4h0a.963.963,0,0,1-.039.284,2.068,2.068,0,0,1-.481.716,3.772,3.772,0,0,0-.433.587,1.94,1.94,0,0,1,.072-.216,3.149,3.149,0,0,0-.548,1.673,1.654,1.654,0,0,0,.394,1.192,5.777,5.777,0,0,0,.866.7,10.1,10.1,0,0,0,4.808,10.5c.063.149.125.3.183.457a12.642,12.642,0,0,1,.962,5.77,2.1,2.1,0,0,1-.067.423c-.029.139-.13.144-.188.221h0s-8.746.087-10.808-1.779-5.2,4.553-5.2,4.553-3.135.606-3.76,0-4.3-.087-4.3-.087a7.909,7.909,0,0,0-5.443-1.991A16.176,16.176,0,0,0,570.3,413h0l-.1-.034h0a4.51,4.51,0,0,0-1.971-.25s-4.3-3.558-5.558-5.462-7.212-8.986-7.255-9.02v-.341l-.067-1.034a3.415,3.415,0,0,1-.534.048c-.034-.1-.072-.221-.12-.356a19.986,19.986,0,0,0-1.269-2.918s0-1.3.38-1.625-.159-5.1-.159-5.1-3.875-9.063-7.347-2.3c0,0-6.563,4.38-1.053,9.477,0,0,2.2,1.063,2.505,1.923.207.548.962,2.077,1.442,3.092l.226.457-.062.053.082.851.034.327c-1.039.591-1.741,1.173-1.572,1.615a9.783,9.783,0,0,1,.63,2.342s7.587,9.52,8.573,13.607c0,0,20.429,12.14,27.151,13.006l-1.164,6.073a48.584,48.584,0,0,0-.269,4.943c.087,1.3-.808,7.212-.808,7.212s-1.164,8.654-2.149,9.885-.784,6.409-.784,6.409a43.811,43.811,0,0,1-1.346,7.371,19.322,19.322,0,0,0-.269,7.376s-3.4,7.8,4.75,2.515c0,0,4.005-.25,8.616-.409v.481c0,.591,0,1.236-.029,1.923-.062,4.471-.087,10.631.115,15.294.361,8.236,2.885,24.545,2.885,24.545v8.174a11.252,11.252,0,0,0-.236,2.341,15.266,15.266,0,0,0,2.207,8.2l.63,5.462a21.384,21.384,0,0,1,1.5,5.77,3.333,3.333,0,0,1-.063.524,3.733,3.733,0,0,0-.072.837c-.082,2.481,1.414,8.414,1.414,8.414s.087,5.986.962,6.332c.764.3-1.024,3.452-1.558,4.356a.32.32,0,0,0-.034-.173l-.111.183a4.194,4.194,0,0,0-.279,1.51,2.178,2.178,0,0,0,1,2.106c1.7,1.039,2.616,1.923,1.168,2.255a15.519,15.519,0,0,0-1.577.332l-.077-.2a.962.962,0,0,0-.587,1.048,4.364,4.364,0,0,0,.534,2.029,23.133,23.133,0,0,0,2.4,4.423l.692-.077a3.7,3.7,0,0,1-.4.74,2.856,2.856,0,0,1-1.015.9,3.058,3.058,0,0,1-1.226.418,3.467,3.467,0,0,0-2.539,1.236c-.894,1.159-1.442,2.731.313,4.116l6.409,2.212s11.02,1.442,10.438-1.043-.962-4.64-.962-4.64a9.77,9.77,0,0,0-.894-4.385,5.878,5.878,0,0,0-.389-.644l.389-.043s.808-5.467,1.88-6.505c.25-.24.308-.423.245-.567.111-.3-.168-.481-.529-.572l-.077.216a5.248,5.248,0,0,0-1.072-.12s-.356-2.861.808-3.9a1.106,1.106,0,0,0,.226-.851,4.782,4.782,0,0,0-.12-1.168l-.043.067a42.323,42.323,0,0,0-2.572-6.731s-.091-2.6.63-3.644-.091-14.136-.091-14.136.269-6.332-.539-9.28.986-6.419.986-6.419v-.192l.024-.043s-.043-.39-.106-1v.058c-.183-1.673-.524-4.712-.774-6.116-.361-2,.087-11.539.087-11.539l1.615-4.077,2.885,7.029,3.048,9.366a7.969,7.969,0,0,1,1.543,3.981,1.96,1.96,0,0,1,0,.293,5.654,5.654,0,0,0-.034.63,5.549,5.549,0,0,0,.928,3.332s.808,4.423,2.063,5.553a5,5,0,0,1,1.255,3.293s1.519,6.419,2.24,7.549c.6.962.635,3.563.63,4.361h0v.236s.212,2.293.2,4.221v.688a.208.208,0,0,1,0-.053,7.039,7.039,0,0,1-.187,1.563.163.163,0,0,1-.029.091l.029-.327a16.526,16.526,0,0,0-.481,4c-.043,2.308.308,5.039,1.707,6.64,2.4,2.779,3.943,2.433,3.943,2.433s-1.164,3.467-2.6,4.159a.808.808,0,0,0-.149.1,1.5,1.5,0,0,0-.039-.2,1.683,1.683,0,0,0-.418,1.293,9.217,9.217,0,0,0,1.774,5.14,2.8,2.8,0,0,0,1.212.707l-.226.139a4.955,4.955,0,0,1-.481.236,2.322,2.322,0,0,1-.731.188,3.433,3.433,0,0,0-2.539,1.236c-.894,1.154-1.442,2.726.313,4.111l6.409,2.212S645.638,596.785,645.056,594.309Z" transform="translate(-311.314 -219.299)" fill="url(#linear-gradient-2)"/>
  <path id="Path_565" data-name="Path 565" d="M694.275,677.4a17.671,17.671,0,0,0-1.217,2.6v6.851c-1.731,2.885-10.751,1.923-11.967.346s-2.515-5.635-1.125-6.327,2.515-4.164,2.515-4.164-1.476.346-3.818-2.428-1.649-8.933-1.212-10.409,0-6.419,0-6.419.087-3.467-.611-4.6-2.169-7.544-2.169-7.544a5.127,5.127,0,0,0-1.212-3.3c-1.212-1.13-2-5.548-2-5.548a5.7,5.7,0,0,1-.88-3.726c.264-2.168-1.471-4.51-1.471-4.51l-2.947-9.366-2.779-7.024-1.548,4.072s-.437,9.539-.086,11.539.865,7.284.865,7.284-1.736,3.471-.962,6.419.519,9.28.519,9.28.779,13.1.087,14.136-.606,3.644-.606,3.644,3.553,7.63,2.4,8.654-.784,3.9-.784,3.9,2.4,0,1.39,1.039-1.774,6.52-1.774,6.52l-10.486,1.212a21.781,21.781,0,0,1-2.351-4.423c-1.39-3.212.26-2.885,1.659-3.207s.51-1.216-1.135-2.255-.7-3.366-.7-3.366,2.515-4.25,1.649-4.6-.962-6.327-.962-6.327-1.736-7.116-1.3-9.02-1.389-6.505-1.389-6.505l-.606-5.467a15.035,15.035,0,0,1-1.923-10.318v-8.428s-2.4-16.3-2.774-24.545c-.221-5.289-.159-12.477-.087-16.972.043-2.519.087-4.188.087-4.188L680.053,576a30.94,30.94,0,0,0,.678,5.563c.38,2.058.962,4.722,1.923,8.054a36.562,36.562,0,0,1,1.039,16.65l-.346,12.059s3.3,8.063,2.6,10.842a23.075,23.075,0,0,0-.692,5.029s7.371,17.607,6.592,22.723,2.4,13.184,2.4,13.184S695.14,675.834,694.275,677.4Z" transform="translate(-362.908 -319.969)" fill="#575988"/>
  <path id="Path_566" data-name="Path 566" d="M705.71,691.269l11.409-1.519S710.657,696.342,705.71,691.269Z" transform="translate(-395.768 -379.028)" opacity="0.05"/>
  <path id="Path_567" data-name="Path 567" d="M723.752,666.57s.39,4.034-2.082,5.553C721.675,672.123,726.1,671.426,723.752,666.57Z" transform="translate(-404.054 -366.993)" opacity="0.1"/>
  <path id="Path_568" data-name="Path 568" d="M710.018,639.88s-9.534,7.847-12.982,7.212S710.018,639.88,710.018,639.88Z" transform="translate(-391.018 -353.136)" opacity="0.1"/>
  <path id="Path_569" data-name="Path 569" d="M668.252,700.58s-7.241,1.644-7.457,4.553S668.252,700.58,668.252,700.58Z" transform="translate(-372.446 -384.651)" opacity="0.1"/>
  <g id="Group_36" data-name="Group 36" transform="translate(279.504 259.694)" opacity="0.05">
    <path id="Path_571" data-name="Path 571" d="M658.658,785.166a2.038,2.038,0,0,1-.933-1.486l-.106.183s-.962,2.341.692,3.366c.192.12.37.24.534.356.308-.058.635-.1.962-.178C661.192,787.07,660.308,786.2,658.658,785.166Z" transform="translate(-650.159 -687.491)"/>
    <path id="Path_572" data-name="Path 572" d="M686.976,783.394c.284-.26.274-.928.1-1.784a4.837,4.837,0,0,0-.582,2.515A2.105,2.105,0,0,1,686.976,783.394Z" transform="translate(-665.293 -686.416)"/>
    <path id="Path_573" data-name="Path 573" d="M683.482,695.58a11.661,11.661,0,0,0-.692,3.188,12.554,12.554,0,0,1,.793-2.192S683.545,696.186,683.482,695.58Z" transform="translate(-663.372 -641.749)"/>
    <path id="Path_574" data-name="Path 574" d="M732.8,685.072a3.993,3.993,0,0,0,.1-.962c-.13.644-.221,1.245-.284,1.774A4.661,4.661,0,0,1,732.8,685.072Z" transform="translate(-689.238 -635.794)"/>
    <path id="Path_575" data-name="Path 575" d="M683.471,757.633a5.528,5.528,0,0,0,.26-1.923,6.534,6.534,0,0,0-.481,2.433A2.346,2.346,0,0,1,683.471,757.633Z" transform="translate(-663.611 -672.969)"/>
    <path id="Path_576" data-name="Path 576" d="M672.091,793.72a34.123,34.123,0,0,0-1.192,5.327l-10.486,1.216a21.974,21.974,0,0,1-2.351-4.423c-.12-.284-.216-.534-.293-.765-.63.288-.875.962-.053,2.846a22.189,22.189,0,0,0,2.346,4.423l10.5-1.216s.779-5.462,1.818-6.505C672.884,794.114,672.557,793.855,672.091,793.72Z" transform="translate(-650.081 -692.703)"/>
    <path id="Path_577" data-name="Path 577" d="M650.556,669.064s.086,5.986.962,6.332h0c.438-.99.731-1.923.341-2.087-.87-.346-.962-6.332-.962-6.332s-1.731-7.111-1.3-9.02-1.39-6.505-1.39-6.505l-.606-5.462a15.016,15.016,0,0,1-1.923-10.323v-8.414s-2.4-16.3-2.774-24.521c-.221-5.289-.159-12.5-.087-16.972,0-.812.024-1.534.039-2.14l-.3.029s-.048,1.668-.087,4.193c-.077,4.491-.139,11.693.087,16.968.346,8.241,2.774,24.545,2.774,24.545v8.414a15.015,15.015,0,0,0,1.923,10.323l.611,5.428s1.822,4.6,1.389,6.505S650.556,669.064,650.556,669.064Z" transform="translate(-642.403 -583.62)"/>
    <path id="Path_578" data-name="Path 578" d="M721.344,798.011a10.1,10.1,0,0,1-1.659-4.121c-1.072.962.159,4.717,1.313,6.2,1.212,1.558,10.232,2.515,11.967-.346v-1.654C730.619,800.419,722.508,799.487,721.344,798.011Z" transform="translate(-682.314 -692.791)"/>
    <path id="Path_579" data-name="Path 579" d="M749.686,782a16.832,16.832,0,0,0-1.216,2.6V785.8c.2-.447.481-1.039.87-1.74a5.188,5.188,0,0,0,.38-2.144A.292.292,0,0,0,749.686,782Z" transform="translate(-697.473 -686.577)"/>
    <path id="Path_580" data-name="Path 580" d="M719.328,771.109a16.748,16.748,0,0,0,.856-2.063s-1.476.346-3.818-2.4c-1.707-2.019-1.8-5.832-1.558-8.323-.437,1.471-1.13,7.63,1.212,10.4C717.554,770.518,718.708,770.994,719.328,771.109Z" transform="translate(-679.764 -674.324)"/>
    <path id="Path_581" data-name="Path 581" d="M698.744,693.405a46.348,46.348,0,0,1,.173,5.14,7.5,7.5,0,0,1,.178-.808c.438-1.471,0-6.414,0-6.414s.087-3.471-.606-4.6-2.168-7.549-2.168-7.549a5.109,5.109,0,0,0-1.212-3.293c-1.212-1.125-2-5.553-2-5.553a5.678,5.678,0,0,1-.87-3.726c.26-2.168-1.471-4.51-1.471-4.51l-2.952-9.371-2.774-7.025-1.563,4.077s0,.515-.053,1.317l1.269-3.313,2.774,7.025,2.962,9.371s1.736,2.341,1.476,4.51a5.679,5.679,0,0,0,.87,3.726s.779,4.423,1.991,5.553a5.133,5.133,0,0,1,1.216,3.293s1.476,6.419,2.168,7.549S698.744,693.405,698.744,693.405Z" transform="translate(-663.704 -615.852)"/>
  </g>
  <path id="Path_582" data-name="Path 582" d="M721.228,404.176l-.654,3.164.038,1.409.029,1.043-3.62.37-.4-.75h0a33.137,33.137,0,0,0-2.808-4.539c-.668-.563-1.861-9.366-.428-8.847a3.789,3.789,0,0,1,2.015,1.827S722.507,398.69,721.228,404.176Z" transform="translate(-399.4 -226.516)" fill="#ffcdd3"/>
  <path id="Path_583" data-name="Path 583" d="M724.864,423.138l-3.62.37-.4-.75h0a3.2,3.2,0,0,1,4-.659Z" transform="translate(-403.623 -239.843)" opacity="0.1"/>
  <path id="Path_584" data-name="Path 584" d="M725.555,425.19,720.78,426.3l-.1-.712-.274-1.923a3.283,3.283,0,0,1,4.621-.63l.236.962Z" transform="translate(-403.4 -240.184)" fill="#dce6f2"/>
  <path id="Path_585" data-name="Path 585" d="M557.873,397.314l-5.092,2.731-.481-.962c-.481-1.014-1.207-2.543-1.4-3.092-.3-.841-2.428-1.923-2.428-1.923-5.332-5.1,1.019-9.477,1.019-9.477,3.366-6.765,7.111,2.3,7.111,2.3s.519,4.774.154,5.1-.37,1.625-.37,1.625a19.737,19.737,0,0,1,1.231,2.918C557.791,397.016,557.873,397.314,557.873,397.314Z" transform="translate(-313.021 -219.289)" fill="#ffcdd3"/>
  <path id="Path_586" data-name="Path 586" d="M564.313,412.89l-5.092,2.731-.481-.962c.716-.6,3.269-2.664,4.106-2.572a6.406,6.406,0,0,0,1.207.034C564.231,412.592,564.313,412.89,564.313,412.89Z" transform="translate(-319.461 -234.865)" opacity="0.1"/>
  <path id="Path_587" data-name="Path 587" d="M565.019,414.842l-5.722,2.822-.115-1.231-.082-.851s3.318-2.842,4.3-2.736a5.175,5.175,0,0,0,1.5,0l.063,1.029Z" transform="translate(-319.648 -235.259)" fill="#dce6f2"/>
  <path id="Path_588" data-name="Path 588" d="M679.026,435.881s-24.963,2.818-20.295,1.3c3.245-1.058,4.534-3.12,4.808-5.414a13,13,0,0,0-.933-5.77,24.829,24.829,0,0,0-2.231-4.51s19.083-10.5,15.266-.962a15.288,15.288,0,0,0-1.082,4.52,12.634,12.634,0,0,0,.481,4.572A13.593,13.593,0,0,0,679.026,435.881Z" transform="translate(-371.075 -237.172)" fill="#ffcdd3"/>
  <path id="Path_589" data-name="Path 589" d="M678.046,420.526a15.291,15.291,0,0,0-1.082,4.52c-1.8,1.51-3.77,1.409-6.3,1.409-1.923,0-4.1.481-5.654-.481a24.828,24.828,0,0,0-2.231-4.51S681.863,410.977,678.046,420.526Z" transform="translate(-373.479 -237.164)" opacity="0.1"/>
  <circle id="Ellipse_75" data-name="Ellipse 75" cx="10.323" cy="10.323" r="10.323" transform="translate(286.522 169.308)" fill="#ffcdd3"/>
  <path id="Path_590" data-name="Path 590" d="M679.026,448.863s-24.963,2.818-20.295,1.3c3.245-1.058,4.534-3.12,4.808-5.414,1.24-1.346,3.736-2.317,5.342-2.832a7.457,7.457,0,0,1,4.524-.072,6.282,6.282,0,0,1,1.644.76A13.592,13.592,0,0,0,679.026,448.863Z" transform="translate(-371.075 -250.154)" opacity="0.1"/>
  <path id="Path_591" data-name="Path 591" d="M725.851,426.833l-4.774,1.106-.1-.712a4.217,4.217,0,0,1,4.582-1.567Z" transform="translate(-403.696 -241.827)" opacity="0.1"/>
  <path id="Path_592" data-name="Path 592" d="M565.107,415.956l-5.722,2.822-.115-1.231a42.059,42.059,0,0,1,5.77-2.558Z" transform="translate(-319.737 -236.374)" opacity="0.1"/>
  <path id="Path_593" data-name="Path 593" d="M680.813,581.573c-9.664,1.529-23.425,3.515-25.608,2.851-1.808-.553-7.592-.481-12.626-.322.043-2.519.087-4.188.087-4.188L680.136,576A30.945,30.945,0,0,0,680.813,581.573Z" transform="translate(-362.991 -319.969)" opacity="0.1"/>
  <path id="Path_594" data-name="Path 594" d="M645.589,496.04s-31.829,5.467-35.248,4.423-20.953.087-20.953.087c-7.89,5.289-4.6-2.515-4.6-2.515a19.419,19.419,0,0,1,.26-7.371,44.887,44.887,0,0,0,1.327-7.371s-.173-5.207.779-6.419,2.082-9.89,2.082-9.89.87-5.895.784-7.212a49.294,49.294,0,0,1,.26-4.943l1.125-6.073c-6.505-.865-26.281-13.011-26.281-13.011-.962-4.072-8.323-13.616-8.323-13.616a9.9,9.9,0,0,0-.611-2.342c-.519-1.385,7.289-4.159,7.289-4.159s5.808,7.111,7.024,9.02,5.375,5.462,5.375,5.462a4.232,4.232,0,0,1,1.923.25l.1.029h0a15.547,15.547,0,0,1,3.885,2.231,7.529,7.529,0,0,1,5.289,2s3.558-.519,4.164.087,3.645,0,3.645,0,3.034-6.419,5.029-4.553,10.458,1.779,10.458,1.779c1.13-1.5,3.875-2.577,5.592-3.13a7.491,7.491,0,0,1,4.524-.072,5.831,5.831,0,0,1,1.784.861l5.135,5.029s1.476-1.923,1.3-2.342,1.736-.779,1.736-.779,2.515-.784,3.467-1.043,1.827.774,1.923.865a10.17,10.17,0,0,1-.428-3.813,4.488,4.488,0,0,0-1.043-3.125c3.039-7.457,9.89-1.212,9.89-1.212s.779,4.077.087,5.635.692,4.861.519,5.726.346,2.341.346,3.991a23.4,23.4,0,0,1-1.39,6.154c-.524,1.385-4.683,4.51-4.683,4.51s-.26,4.947-2.082,7.808-.745,12.664-.745,12.664,1.736,7.65,3.919,10.1S645.589,496.04,645.589,496.04Z" transform="translate(-318.126 -236.706)" fill="#656691"/>
  <path id="Path_595" data-name="Path 595" d="M640.967,458.438s-.962-2.861-1.822-3.12a20.642,20.642,0,0,1-2.515-1.13l.558-1.067s3.255.894,3.779,1.846S640.967,458.438,640.967,458.438Z" transform="translate(-359.902 -256.171)" opacity="0.1"/>
  <path id="Path_596" data-name="Path 596" d="M600.865,448.555c-.173.865-7.895,1.649-7.895,1.649l3.9-3.914h0l.1.034h0A15.55,15.55,0,0,1,600.865,448.555Z" transform="translate(-337.233 -252.624)" opacity="0.1"/>
  <circle id="Ellipse_76" data-name="Ellipse 76" cx="0.692" cy="0.692" r="0.692" transform="translate(240.601 183.338)" fill="#575988"/>
  <circle id="Ellipse_77" data-name="Ellipse 77" cx="0.692" cy="0.692" r="0.692" transform="translate(241.49 184.727)" fill="#575988"/>
  <circle id="Ellipse_78" data-name="Ellipse 78" cx="0.692" cy="0.692" r="0.692" transform="translate(242.361 186.006)" fill="#575988"/>
  <circle id="Ellipse_79" data-name="Ellipse 79" cx="0.692" cy="0.692" r="0.692" transform="translate(243.269 187.396)" fill="#575988"/>
  <circle id="Ellipse_80" data-name="Ellipse 80" cx="0.563" cy="0.563" r="0.563" transform="translate(325.155 187.449)" fill="#575988"/>
  <circle id="Ellipse_81" data-name="Ellipse 81" cx="0.563" cy="0.563" r="0.563" transform="translate(325.241 188.728)" fill="#575988"/>
  <circle id="Ellipse_82" data-name="Ellipse 82" cx="0.563" cy="0.563" r="0.563" transform="translate(325.318 190.007)" fill="#575988"/>
  <path id="Path_597" data-name="Path 597" d="M645.74,513.06c-.082-.1,19.468,24.588,34.647,10.323C680.386,523.383,656.4,526.633,645.74,513.06Z" transform="translate(-364.631 -287.291)" opacity="0.1"/>
  <path id="Path_598" data-name="Path 598" d="M622.38,539.76s11.7.317,12.919,3.683v3.505a2.236,2.236,0,0,1-2.173,0c-1.178-.639-8.255-4.231-10.746-2.5Z" transform="translate(-352.503 -301.154)" opacity="0.1"/>
  <path id="Path_599" data-name="Path 599" d="M622.83,539.76s11.188.3,12.357,3.515v3.332a2.145,2.145,0,0,1-2.082,0c-1.125-.606-7.89-4.034-10.275-2.4Z" transform="translate(-352.737 -301.154)" fill="#656691"/>
  <path id="Path_600" data-name="Path 600" d="M635.66,486.92a37.8,37.8,0,0,0,4.534,7.784,30.523,30.523,0,0,0,7.106,6.861S635.852,488.531,635.66,486.92Z" transform="translate(-359.398 -273.719)" opacity="0.1"/>
  <path id="Path_601" data-name="Path 601" d="M627.7,458.65s1.952,8.424,6.981,11.289Z" transform="translate(-355.265 -259.042)" opacity="0.1"/>
  <path id="Path_602" data-name="Path 602" d="M621.283,460.417c-.048-.154-1.731,6.664,6.486,10.438C627.788,470.855,624.278,469.668,621.283,460.417Z" transform="translate(-351.844 -259.958)" opacity="0.1"/>
  <path id="Path_603" data-name="Path 603" d="M727.717,448.664c-.13,0,4.058,2.664,5.193,3.9C732.91,452.564,730.188,448.491,727.717,448.664Z" transform="translate(-407.192 -253.854)" opacity="0.1"/>
  <path id="Path_604" data-name="Path 604" d="M663.419,411.409a2.2,2.2,0,0,0,.808,1.394,2.226,2.226,0,0,0,.962.216c3.149.192,6.423.332,9.332-.88a3.528,3.528,0,0,0,1.442-.938,5.817,5.817,0,0,0,.827-2.284,29.979,29.979,0,0,1,1.923-4.385,14.708,14.708,0,0,0,1.019-7.871,5.218,5.218,0,0,0-.784-2.3c-.837-1.192-2.356-1.673-3.462-2.62s-1.813-2.4-3.1-3.116a5.985,5.985,0,0,0-3.895-.346,20.551,20.551,0,0,0-7.318,2.731,3.633,3.633,0,0,1-2.4.827,3.359,3.359,0,0,1-1.789-1.37,9.617,9.617,0,0,0-.769,4.5,2,2,0,0,1,0,.678,2.092,2.092,0,0,1-.481.716c-.779.9-1.264,2.327-.481,3.236.332.4.846.615,1.173,1.019.582.726.385,1.765.37,2.7a1.375,1.375,0,0,0,.231.914,1.332,1.332,0,0,0,1.274.3,3.535,3.535,0,0,1,1.356-.13,2.231,2.231,0,0,1,1.178.909A16.684,16.684,0,0,1,663.419,411.409Z" transform="translate(-369.362 -222.422)" fill="#2d293d"/>
  <g id="Group_37" data-name="Group 37" transform="translate(285.458 167.943)" opacity="0.1">
    <path id="Path_605" data-name="Path 605" d="M676.261,419.72a3.491,3.491,0,0,1-1.442.962c-2.885,1.212-6.183,1.072-9.332.875a2.1,2.1,0,0,1-.962-.216,2.183,2.183,0,0,1-.808-1.394,16.073,16.073,0,0,0-2.63-6.1,2.232,2.232,0,0,0-1.178-.909,3.443,3.443,0,0,0-1.356.13,1.341,1.341,0,0,1-1.26-.3,1.384,1.384,0,0,1-.231-.918c0-.928.212-1.971-.37-2.693-.327-.409-.837-.62-1.173-1.019a2.039,2.039,0,0,1-.2-2.072,2.374,2.374,0,0,0-.144,2.765c.332.4.846.615,1.173,1.019.582.726.385,1.765.37,2.7a1.375,1.375,0,0,0,.231.914,1.332,1.332,0,0,0,1.274.3,3.535,3.535,0,0,1,1.356-.13,2.231,2.231,0,0,1,1.178.909,16.287,16.287,0,0,1,2.63,6.106,1.63,1.63,0,0,0,1.779,1.611c3.149.192,6.424.332,9.332-.88a3.529,3.529,0,0,0,1.442-.938,2.753,2.753,0,0,0,.447-.837,1.485,1.485,0,0,1-.125.12Z" transform="translate(-654.786 -399.68)"/>
    <path id="Path_606" data-name="Path 606" d="M657.622,397.79a1.442,1.442,0,0,0,.317-.519,2,2,0,0,0,0-.678,9.567,9.567,0,0,1,.481-3.736l-.058-.067a9.549,9.549,0,0,0-.769,4.5A2.959,2.959,0,0,1,657.622,397.79Z" transform="translate(-656.231 -392.79)"/>
  </g>
  <path id="Path_607" data-name="Path 607" d="M668.84,449.321s12.9,1.707,14.054-.231" transform="translate(-376.625 -254.078)" opacity="0.1"/>
  <path id="Path_608" data-name="Path 608" d="M721,438.47s7.159,0,8.736,2.7" transform="translate(-403.706 -248.564)" opacity="0.1"/>
  <path id="Path_609" data-name="Path 609" d="M1039.074,425s.894,1.168-.413,2.938-2.4,3.265-1.952,4.366c0,0,1.976-3.284,3.582-3.332S1040.843,426.952,1039.074,425Z" transform="translate(-567.567 -241.571)" fill="#6c63ff"/>
  <path id="Path_610" data-name="Path 610" d="M1039.134,425a1.586,1.586,0,0,1,.183.365c1.567,1.846,2.4,3.563.894,3.606-1.4.043-3.087,2.553-3.491,3.188a.427.427,0,0,0,.048.144c.019.048,1.976-3.284,3.582-3.332S1040.9,426.952,1039.134,425Z" transform="translate(-567.627 -241.571)" opacity="0.1"/>
  <path id="Path_611" data-name="Path 611" d="M1044.977,427.766c0,.413-.043.75-.1.75s-.106-.337-.106-.75.058-.216.115-.216S1044.977,427.357,1044.977,427.766Z" transform="translate(-571.807 -242.87)" fill="#ffd037"/>
  <path id="Path_612" data-name="Path 612" d="M1045.63,428.774c-.361.2-.678.317-.7.264s.24-.25.606-.447.216-.053.245,0S1046,428.577,1045.63,428.774Z" transform="translate(-571.888 -243.383)" fill="#ffd037"/>
  <path id="Path_613" data-name="Path 613" d="M1029.725,425s-.9,1.168.413,2.938,2.4,3.265,1.952,4.366c0,0-1.976-3.284-3.587-3.332S1027.955,426.952,1029.725,425Z" transform="translate(-562.949 -241.571)" fill="#6c63ff"/>
  <path id="Path_614" data-name="Path 614" d="M1029.725,425a1.466,1.466,0,0,0-.188.365c-1.567,1.846-2.4,3.563-.894,3.606,1.4.043,3.092,2.553,3.5,3.188a.429.429,0,0,1-.048.144c-.019.048-1.976-3.284-3.587-3.332S1027.955,426.952,1029.725,425Z" transform="translate(-562.949 -241.571)" opacity="0.1"/>
  <path id="Path_615" data-name="Path 615" d="M1028.43,427.768c0,.413.048.75.106.75a1.517,1.517,0,0,0,.1-.75c0-.409-.058-.216-.115-.216S1028.43,427.359,1028.43,427.768Z" transform="translate(-563.323 -242.872)" fill="#ffd037"/>
  <path id="Path_616" data-name="Path 616" d="M1027,428.774c.365.2.678.317.707.264s-.245-.25-.606-.447-.221-.053-.25,0S1026.641,428.577,1027,428.774Z" transform="translate(-562.466 -243.383)" fill="#ffd037"/>
  <path id="Path_617" data-name="Path 617" d="M1029,438.358s2.5-.077,3.26-.615,3.846-1.178,4.044-.317,3.765,4.289.962,4.327-6.573-.438-7.327-.9S1029,438.358,1029,438.358Z" transform="translate(-563.619 -247.803)" fill="#a8a8a8"/>
  <path id="Path_618" data-name="Path 618" d="M1037.3,442.9c-2.827,0-6.573-.442-7.323-.9-.577-.351-.8-1.606-.88-2.183h-.1s.159,2.024.913,2.481,4.5.923,7.328.9c.817,0,1.1-.3,1.082-.726C1038.217,442.734,1037.909,442.9,1037.3,442.9Z" transform="translate(-563.619 -249.265)" opacity="0.2"/>
  <path id="Path_490" data-name="Path 490" d="M564.715,807.444s-18.295-1.106-16.136,11.712a3.127,3.127,0,0,0,1.625,3.293s.034-.962,1.875-.625a8.416,8.416,0,0,0,1.986.1,4.149,4.149,0,0,0,2.433-1h0s5.14-2.125,7.14-10.53c0,0,1.481-1.832,1.442-2.3l-3.087,1.317a5.531,5.531,0,0,1,.221,4.077s-.1-4-.692-3.9c-.12,0-1.6.769-1.6.769s1.813,3.88.442,6.7c0,0,.519-4.779-1.01-6.414L557.18,811.9s2.12,4.01.683,7.279c0,0,.37-5.015-1.14-6.967l-1.971,1.534s2,3.947.779,6.659c0,0-.159-5.837-1.207-6.25a11.828,11.828,0,0,0-1.981,2.14s1.361,2.885.514,4.38c0,0-.519-3.89-.962-3.9A12.942,12.942,0,0,0,550,821.094a9.367,9.367,0,0,1,1.476-4.592,5.149,5.149,0,0,0-2.625,1.361s.264-1.822,3.048-1.981a13.14,13.14,0,0,1,1.8-2.072,11.272,11.272,0,0,0-4.447.514s1.476-1.721,4.957-.962l1.923-1.587s-3.644-.481-5.193.053c0,0,1.779-1.524,5.717-.413l2.116-1.269a19.219,19.219,0,0,0-4.957-.428s1.952-1.053,5.577.091l1.515-.683s-2.279-.447-2.943-.514-.7-.255-.7-.255a7.866,7.866,0,0,1,4.274.481A19.514,19.514,0,0,0,564.715,807.444Z" transform="translate(-314.094 -440.122)" fill="#6c63ff"/>
  <ellipse id="Ellipse_56" data-name="Ellipse 56" cx="12.948" cy="2.188" rx="12.948" ry="2.188" transform="translate(225.071 381.261)" fill="#6c63ff" opacity="0.1"/>
  <path id="Path_491" data-name="Path 491" d="M862.828,774.844s-18.271-1.1-16.136,11.717a3.127,3.127,0,0,0,1.625,3.293s.034-.962,1.875-.63a8.476,8.476,0,0,0,1.991.1,4.106,4.106,0,0,0,2.428-1h0s5.145-2.12,7.14-10.525c0,0,1.481-1.837,1.442-2.308l-3.106,1.346a5.547,5.547,0,0,1,.226,4.077s-.1-4-.692-3.9c-.12,0-1.606.769-1.606.769s1.813,3.88.447,6.7c0,0,.519-4.779-1.014-6.419l-2.173,1.269s2.12,4.005.683,7.274c0,0,.37-5.015-1.139-6.967l-1.966,1.524s1.99,3.952.774,6.664c0,0-.159-5.842-1.2-6.279a12.059,12.059,0,0,0-1.986,2.144s1.365,2.885.519,4.375c0,0-.519-3.885-.962-3.9a12.942,12.942,0,0,0-1.894,4.327,9.351,9.351,0,0,1,1.481-4.592,5.173,5.173,0,0,0-2.63,1.361s.269-1.817,3.053-1.981a13.143,13.143,0,0,1,1.8-2.072,11.3,11.3,0,0,0-4.452.515s1.481-1.721,4.957-.938l1.923-1.587s-3.649-.481-5.193.053c0,0,1.779-1.519,5.717-.414l2.115-1.265a19.04,19.04,0,0,0-4.962-.428s1.952-1.053,5.582.086l1.515-.678s-2.279-.447-2.947-.519-.7-.255-.7-.255a7.881,7.881,0,0,1,4.279.481A19.552,19.552,0,0,0,862.828,774.844Z" transform="translate(-468.875 -423.197)" fill="#6c63ff"/>
  <ellipse id="Ellipse_57" data-name="Ellipse 57" cx="12.948" cy="2.188" rx="12.948" ry="2.188" transform="translate(368.403 365.586)" fill="#6c63ff" opacity="0.1"/>
  <path id="Path_552" data-name="Path 552" d="M116.73,601.869c0,.788.087,1.442.2,1.442s.2-.639.2-1.442-.111-.418-.221-.418S116.73,601.08,116.73,601.869Z" transform="translate(-89.971 -333.135)" fill="#ffd037"/>
  <path id="Path_553" data-name="Path 553" d="M113.988,603.8c.692.38,1.3.606,1.351.51s-.481-.481-1.159-.856-.423-.1-.481,0S113.291,603.424,113.988,603.8Z" transform="translate(-88.325 -334.124)" fill="#ffd037"/>
  <ellipse id="Ellipse_74" data-name="Ellipse 74" cx="40.407" cy="6.63" rx="40.407" ry="6.63" transform="translate(270.084 372.89)" fill="#6c63ff" opacity="0.1"/>
  <path id="Path_561" data-name="Path 561" d="M659.745,818.857l-6.2-2.212c-1.712-1.385-1.164-2.957-.3-4.116a3.318,3.318,0,0,1,2.457-1.236,2.881,2.881,0,0,0,1.188-.418,2.784,2.784,0,0,0,.962-.9,4.534,4.534,0,0,0,.707-2.4s6.813-2,8.654,0a5.123,5.123,0,0,1,.827,1.207,10.1,10.1,0,0,1,.865,4.385s.351,2.168.909,4.64S659.745,818.857,659.745,818.857Z" transform="translate(-368.102 -439.741)" fill="#2d293d"/>
  <path id="Path_562" data-name="Path 562" d="M722.883,812.5l-6.2-2.212c-1.712-1.385-1.168-2.957-.3-4.111a3.283,3.283,0,0,1,2.457-1.236,2.177,2.177,0,0,0,.707-.188,3.636,3.636,0,0,0,.481-.236,3.938,3.938,0,0,0,1.688-3.294s6.808-2,8.654,0a4.648,4.648,0,0,1,.649.885,9.811,9.811,0,0,1,1.043,4.712s.346,2.168.909,4.64S722.883,812.5,722.883,812.5Z" transform="translate(-400.882 -436.444)" fill="#2d293d"/>
  <path id="Path_563" data-name="Path 563" d="M673.12,807.578a5.126,5.126,0,0,1,.827,1.207h0l-10.207,1.183a4.534,4.534,0,0,0,.707-2.4S671.26,805.583,673.12,807.578Z" transform="translate(-373.977 -439.742)" opacity="0.1"/>
  <path id="Path_564" data-name="Path 564" d="M735.331,802.1v1.923c-1.582,2.616-9.26,2.043-11.491.731a3.639,3.639,0,0,0,.481-.236,3.938,3.938,0,0,0,1.688-3.294s6.808-2,8.654,0A4.648,4.648,0,0,1,735.331,802.1Z" transform="translate(-405.181 -436.444)" opacity="0.1"/>
  <path id="Path_570" data-name="Path 570" d="M671.147,775.8s-10.232,1.923-7.327,3.207a51.566,51.566,0,0,0,7.693,2.341S674.792,781.522,671.147,775.8Z" transform="translate(-373.749 -423.705)" opacity="0.05"/>
</svg>
