<svg xmlns="http://www.w3.org/2000/svg" width="28" height="26" viewBox="0 0 28 26"><defs><style>.a{fill:#b5b5b5;}.b{fill:#fff;}</style></defs><g transform="translate(-2 -3)"><g transform="translate(10 11)"><path class="a" d="M20,28c-4.962,0-9-3.589-9-8s4.038-8,9-8,9,3.589,9,8S24.962,28,20,28Z" transform="translate(-10 -11)"/><path class="b" d="M20,13c4.418,0,8,3.134,8,7s-3.582,7-8,7-8-3.134-8-7,3.582-7,8-7m0-2c-5.514,0-10,4.037-10,9s4.486,9,10,9,10-4.037,10-9-4.486-9-10-9Z" transform="translate(-10 -11)"/></g><circle class="a" cx="0.5" cy="0.5" r="0.5" transform="translate(3 23)"/><path class="a" d="M10,20c0-4.963,4.486-9,10-9a10.9,10.9,0,0,1,3.9.713C23.2,6.8,18.594,3,13,3,6.925,3,2,7.477,2,13c0,4.73,3.617,8.684,8.471,9.724A8.152,8.152,0,0,1,10,20Z"/><path class="a" d="M27.868,27.279C25.445,25.131,26.333,23,26.333,23L20.5,24.667a12.1,12.1,0,0,0,7.014,3.325Z"/><circle class="a" cx="0.417" cy="0.417" r="0.417" transform="translate(27.166 27.166)"/><path class="a" d="M9,20a8.96,8.96,0,0,1,.6-3.2L4,14s4.078,5.434-.678,9.034l.261.956a8.356,8.356,0,0,0,5.57-2.413A8.939,8.939,0,0,1,9,20Z"/></g></svg>