<svg id="Group_39" data-name="Group 39" xmlns="http://www.w3.org/2000/svg" xmlns:xlink="http://www.w3.org/1999/xlink" width="518.957" height="312.173" viewBox="0 0 518.957 312.173">
  <defs>
    <linearGradient id="linear-gradient" x1="0.5" y1="1" x2="0.5" gradientUnits="objectBoundingBox">
      <stop offset="0" stop-color="gray" stop-opacity="0.251"/>
      <stop offset="0.54" stop-color="gray" stop-opacity="0.122"/>
      <stop offset="1" stop-color="gray" stop-opacity="0.102"/>
    </linearGradient>
  </defs>
  <path id="Path_321" data-name="Path 321" d="M182.535,67.418c17.606-13.74,45.247-16.537,70.4-15.444,79.018,3.436,150.346,36.807,212.045,74.555,22.336,13.666,44.326,28.406,58.838,47.212,29.518,38.309,20.76,91.38-20.279,122.937-13.964,10.74-30.892,18.969-48.269,26.269-30.9,12.973-64.228,23.386-99.3,26.351-25.008,2.113-50.3.389-75.187-2.553C211.325,338.5,143.145,320.286,86,289.1c-25.076-13.674-48.7-30.674-59.031-52.807s-3.719-50.153,21.873-63.247c10.586-5.417,23.239-7.86,35.631-10.16,18.24-3.378,36.767-6.712,53.228-13.584,17-7.1,37.126-20.826,33.762-36.538C167.848,95.921,164.951,81.115,182.535,67.418Z" transform="translate(-22.297 -51.76)" fill="#6c63ff" opacity="0.1"/>
  <path id="Path_322" data-name="Path 322" d="M279,497.252s4.828-3.459,9.823-1.322c0,0-1.4,2.97-7.621,2.933Z" transform="translate(-163.782 -321.741)" fill="#6c63ff"/>
  <path id="Path_323" data-name="Path 323" d="M277.478,500s-1.29,5.8,2.64,9.558c0,0,2.179-2.454-.3-8.161Z" transform="translate(-162.782 -325.19)" fill="#6c63ff"/>
  <path id="Path_324" data-name="Path 324" d="M264,484.21s.177-4.893,11.257-3.7c0,0,.172,3.147-3.636,4.786S265.988,485.761,264,484.21Z" transform="translate(-155.525 -312.852)" fill="#6c63ff"/>
  <path id="Path_325" data-name="Path 325" d="M260.163,488.65s-4.6,1.676-.051,11.853c0,0,3.045-.806,3.431-4.935S262.244,490.075,260.163,488.65Z" transform="translate(-152.231 -318.477)" fill="#6c63ff"/>
  <path id="Path_326" data-name="Path 326" d="M248.539,465.541s-.931-8.008,10.354-7.617c0,0,1.075,7.24-8.292,9.47Z" transform="translate(-146.987 -299.509)" fill="#6c63ff"/>
  <path id="Path_327" data-name="Path 327" d="M231.83,447.124s1.2-9.158,12.57-6.881c0,0,.345,7.868-10.633,8.981Z" transform="translate(-137.802 -288.498)" fill="#6c63ff"/>
  <path id="Path_328" data-name="Path 328" d="M219.38,427.6s2.244-8.981,13.5-6.737c0,0-2.328,8.077-12.7,8.347Z" transform="translate(-127.625 -276.633)" fill="#6c63ff"/>
  <path id="Path_329" data-name="Path 329" d="M207.53,408.1s2.174-9.311,13.036-6.946c0,0-3.259,8.878-12.277,8.487Z" transform="translate(-121.292 -264.612)" fill="#6c63ff"/>
  <path id="Path_330" data-name="Path 330" d="M199.66,387.234s1.513-11.327,11.639-9.223c0,0-2.523,10.349-10.848,10.829Z" transform="translate(-117.086 -250.721)" fill="#6c63ff"/>
  <path id="Path_331" data-name="Path 331" d="M192.09,365.485s1.895-11.43,12.174-8.52c0,0-3.576,10.871-11.406,10.061Z" transform="translate(-113.041 -237.714)" fill="#6c63ff"/>
  <path id="Path_332" data-name="Path 332" d="M187.13,341.826s3.259-11.481,11.136-11.476c0,0-3.329,12.1-10.391,13.725Z" transform="translate(-110.39 -221.948)" fill="#6c63ff"/>
  <path id="Path_333" data-name="Path 333" d="M183.71,319.619s3.506-13.809,9.94-13c0,0-2.388,10.54-9.633,15.117Z" transform="translate(-108.562 -207.509)" fill="#6c63ff"/>
  <path id="Path_334" data-name="Path 334" d="M181.28,296.136s3.338-11.518,9.633-12.216c0,0-2.142,11.29-9.381,15.168Z" transform="translate(-107.263 -193.656)" fill="#6c63ff"/>
  <path id="Path_335" data-name="Path 335" d="M178.76,273.678s4.274-11.569,8.436-11.988c0,0-1.615,11.29-7.947,13.841Z" transform="translate(-105.917 -180.009)" fill="#6c63ff"/>
  <path id="Path_336" data-name="Path 336" d="M176.83,250.574s2.421-12.482,6.546-13.664c0,0-.182,10.135-6.094,14.572Z" transform="translate(-104.885 -164.9)" fill="#6c63ff"/>
  <path id="Path_337" data-name="Path 337" d="M172.4,225.3s2.668-9.972,5.983-11.607c0,0-.223,11.639-5.121,13.967Z" transform="translate(-102.518 -150.69)" fill="#6c63ff"/>
  <path id="Path_338" data-name="Path 338" d="M167.43,200.556,166.15,183.2s6.8,12.877,1.862,20.406Z" transform="translate(-99.177 -132.247)" fill="#6c63ff"/>
  <path id="Path_339" data-name="Path 339" d="M149.951,168.645s-5.023-12.519-6.141-13.185c0,0,9.218,7.915,8.753,18.52Z" transform="translate(-87.238 -107.181)" fill="#6c63ff"/>
  <path id="Path_340" data-name="Path 340" d="M239.41,474.189s-8.031-.74-7.356,10.536c0,0,7.263.9,9.26-8.524Z" transform="translate(-134.377 -309.528)" fill="#6c63ff"/>
  <path id="Path_341" data-name="Path 341" d="M221.654,454.82s-9.227.321-8.036,11.844c0,0,7.8,1.089,9.944-9.735Z" transform="translate(-124.489 -297.826)" fill="#6c63ff"/>
  <path id="Path_342" data-name="Path 342" d="M203.751,436.671s-8.529-3.608-13.5,6.737c0,0,7.863,2.975,14.3-5.121Z" transform="translate(-112.057 -286.053)" fill="#6c63ff"/>
  <path id="Path_343" data-name="Path 343" d="M191.754,415.891s-8.734-3.855-13.394,6.248c0,0,9.055,2.733,14.162-4.711Z" transform="translate(-105.703 -273.284)" fill="#6c63ff"/>
  <path id="Path_344" data-name="Path 344" d="M182.878,394.983s-8.557-7.57-14.838.661c0,0,8.683,6.164,15.284,1.08Z" transform="translate(-100.187 -259.005)" fill="#6c63ff"/>
  <path id="Path_345" data-name="Path 345" d="M176.048,371.536s-8.613-7.747-14.828.931c0,0,9.577,6.262,15.191.74Z" transform="translate(-96.542 -244.725)" fill="#6c63ff"/>
  <path id="Path_346" data-name="Path 346" d="M172.592,345.362s-6.783-9.823-14.232-7.291c0,0,7.049,10.41,14.251,9.66Z" transform="translate(-95.014 -226.191)" fill="#6c63ff"/>
  <path id="Path_347" data-name="Path 347" d="M169.257,322.582s-6.942-12.44-12.947-10c0,0,5.019,9.572,13.189,12.128Z" transform="translate(-93.919 -210.827)" fill="#6c63ff"/>
  <path id="Path_348" data-name="Path 348" d="M167.051,299.062s-7.011-9.73-13.171-8.273c0,0,5.806,9.917,13.925,11.141Z" transform="translate(-92.62 -197.566)" fill="#6c63ff"/>
  <path id="Path_349" data-name="Path 349" d="M169.064,274.335s-5.563-11.006-9.744-10.945c0,0,2.891,11.034,9.47,12.84Z" transform="translate(-95.527 -181.002)" fill="#6c63ff"/>
  <path id="Path_350" data-name="Path 350" d="M165.268,253.106s-6.145-11.127-10.438-10.987c0,0,3.3,9.591,10.284,11.993Z" transform="translate(-93.128 -167.977)" fill="#6c63ff"/>
  <path id="Path_351" data-name="Path 351" d="M165,228.344s-4.632-9.227-8.208-10.154c0,0,2.575,11.36,7.831,12.663Z" transform="translate(-94.175 -153.393)" fill="#6c63ff"/>
  <path id="Path_352" data-name="Path 352" d="M156.188,203.552l-10.1-14.172s2.994,14.256,11.6,16.891Z" transform="translate(-88.457 -135.925)" fill="#6c63ff"/>
  <path id="Path_353" data-name="Path 353" d="M138.83,176.765s-11.364-7.23-11.83-8.455c0,0,6.052,10.512,16.6,12Z" transform="translate(-78.254 -114.049)" fill="#6c63ff"/>
  <path id="Path_354" data-name="Path 354" d="M131.813,165.794s-13.2-11.755-16.453-11.616c0,0,10.522.074,16.76,10.955Z" transform="translate(-72.033 -106.496)" fill="#6c63ff"/>
  <path id="Path_355" data-name="Path 355" d="M161.115,208.2l-.466.079c-3.11-18.646-7.025-29.582-11.02-30.8l.135-.466C153.992,178.295,157.931,189.073,161.115,208.2Z" transform="translate(-90.348 -128.769)" fill="#444053"/>
  <path id="Path_356" data-name="Path 356" d="M178.827,287.024l-.7.084c-.214-1.741-.4-3.529-.545-5.307-1.262-15.48-2.845-29.68-4.614-40.3l.386-.517c1.774,10.643,3.664,25.261,4.93,40.765C178.431,283.514,178.613,285.288,178.827,287.024Z" transform="translate(-102.822 -168.796)" fill="#444053"/>
  <path id="Path_357" data-name="Path 357" d="M241.485,421.142c-.126-.051-12.677-5.089-25.992-17.743a101.791,101.791,0,0,1-19.479-25.466c-6.383-11.83-10.559-26.514-12.323-40.862l.745.317c3.957,32.208,19.516,53.735,31.658,65.3,13.185,12.542,25.606,17.528,25.722,17.575Z" transform="translate(-108.551 -231.404)" fill="#444053"/>
  <g id="Group_22" data-name="Group 22" transform="translate(99.461 2.798)" opacity="0.7">
    <path id="Path_358" data-name="Path 358" d="M320.84,435.646s5.638-1.862,9.777,1.662c0,0-2.221,2.421-8.152.531Z" transform="translate(-285.304 -259.458)" fill="#6c63ff"/>
    <path id="Path_359" data-name="Path 359" d="M317.859,436.23s-2.952,5.154-.321,9.907c0,0,2.793-1.69,2.146-7.877Z" transform="translate(-282.955 -260.033)" fill="#6c63ff"/>
    <path id="Path_360" data-name="Path 360" d="M309.75,418.921s1.629-4.618,11.849-.182c0,0-.768,3.059-4.9,3.487S311.193,420.983,309.75,418.921Z" transform="translate(-279.377 -249.656)" fill="#6c63ff"/>
    <path id="Path_361" data-name="Path 361" d="M304,420.89s-4.888.233-3.576,11.3c0,0,3.152.14,4.749-3.692S305.563,422.864,304,420.89Z" transform="translate(-274.272 -251.835)" fill="#6c63ff"/>
    <path id="Path_362" data-name="Path 362" d="M299.3,397.046s1.485-7.915,12.147-4.19c0,0-1.122,7.23-10.731,6.574Z" transform="translate(-273.792 -236.32)" fill="#6c63ff"/>
    <path id="Path_363" data-name="Path 363" d="M288.94,374.571s3.864-8.38,14.032-2.831c0,0-2.011,7.612-12.826,5.41Z" transform="translate(-268.255 -224.552)" fill="#6c63ff"/>
    <path id="Path_364" data-name="Path 364" d="M282.9,352.545s4.819-7.915,14.9-2.416c0,0-4.656,7.011-14.6,4.19Z" transform="translate(-265.027 -212.979)" fill="#6c63ff"/>
    <path id="Path_365" data-name="Path 365" d="M277.31,330.341s4.842-8.231,14.521-2.751c0,0-5.75,7.5-14.242,4.451Z" transform="translate(-262.04 -200.966)" fill="#6c63ff"/>
    <path id="Path_366" data-name="Path 366" d="M275.27,308.045s4.814-10.363,13.864-5.335c0,0-5.489,9.125-13.576,7.109Z" transform="translate(-260.949 -187.939)" fill="#6c63ff"/>
    <path id="Path_367" data-name="Path 367" d="M274.69,284.972s5.21-10.349,14.153-4.511c0,0-6.644,9.311-13.878,6.211Z" transform="translate(-260.639 -175.83)" fill="#6c63ff"/>
    <path id="Path_368" data-name="Path 368" d="M276.16,261.645s6.518-9.991,14.041-7.645c0,0-6.783,10.582-14,10.014Z" transform="translate(-261.425 -162.452)" fill="#6c63ff"/>
    <path id="Path_369" data-name="Path 369" d="M278.615,239.045s7.449-12.137,13.357-9.451c0,0-5.419,9.353-13.692,11.565Z" transform="translate(-262.558 -149.392)" fill="#6c63ff"/>
    <path id="Path_370" data-name="Path 370" d="M283.163,216.093s6.62-10,12.831-8.8c0,0-5.4,10.145-13.464,11.69Z" transform="translate(-264.829 -137.627)" fill="#6c63ff"/>
    <path id="Path_371" data-name="Path 371" d="M288.159,193.55s7.519-9.777,11.616-8.93c0,0-4.9,10.3-11.7,10.843Z" transform="translate(-267.79 -125.536)" fill="#6c63ff"/>
    <path id="Path_372" data-name="Path 372" d="M292.71,170.329s6.024-11.174,10.317-11.1c0,0-3.194,9.623-10.154,12.1Z" transform="translate(-270.27 -111.994)" fill="#6c63ff"/>
    <path id="Path_373" data-name="Path 373" d="M296.7,144.671s5.517-8.725,9.167-9.311c0,0-3.678,11.053-9.041,11.83Z" transform="translate(-272.402 -99.237)" fill="#6c63ff"/>
    <path id="Path_374" data-name="Path 374" d="M298.354,117.536,302.3,100.58S304.956,114.9,298,120.6Z" transform="translate(-273.097 -80.649)" fill="#6c63ff"/>
    <path id="Path_375" data-name="Path 375" d="M296.111,81.862s-1.075-13.445-1.941-14.432c0,0,6.453,10.28,2.849,20.289Z" transform="translate(-271.05 -62.933)" fill="#6c63ff"/>
    <path id="Path_376" data-name="Path 376" d="M287.034,402.269s-7.449-3.091-10.154,7.877c0,0,6.662,3.017,11.374-5.387Z" transform="translate(-261.81 -241.668)" fill="#6c63ff"/>
    <path id="Path_377" data-name="Path 377" d="M275.467,378.948s-8.906-2.435-11.2,8.92c0,0,7.123,3.361,12.393-6.336Z" transform="translate(-255.071 -229.302)" fill="#6c63ff"/>
    <path id="Path_378" data-name="Path 378" d="M265.2,356.679s-7.067-5.982-14.9,2.416c0,0,6.62,5.182,15.182-.642Z" transform="translate(-247.604 -216.414)" fill="#6c63ff"/>
    <path id="Path_379" data-name="Path 379" d="M260.067,333.108s-7.2-6.276-14.647,1.979c0,0,7.831,5.308,14.921-.279Z" transform="translate(-244.996 -203.7)" fill="#6c63ff"/>
    <path id="Path_380" data-name="Path 380" d="M258.877,309.742s-5.922-9.777-14.367-3.79c0,0,6.457,8.473,14.274,5.587Z" transform="translate(-244.51 -189.37)" fill="#6c63ff"/>
    <path id="Path_381" data-name="Path 381" d="M259.242,285.374s-5.922-9.958-14.432-3.515c0,0,7.281,8.846,14.279,5.228Z" transform="translate(-244.67 -176.372)" fill="#6c63ff"/>
    <path id="Path_382" data-name="Path 382" d="M264.986,257.8s-3.552-11.392-11.416-11.174c0,0,3.631,12.039,10.731,13.464Z" transform="translate(-249.352 -158.7)" fill="#6c63ff"/>
    <path id="Path_383" data-name="Path 383" d="M268.611,234.916s-2.924-13.944-9.381-13.4c0,0,1.946,10.633,8.985,15.508Z" transform="translate(-252.377 -145.272)" fill="#6c63ff"/>
    <path id="Path_384" data-name="Path 384" d="M273.567,211.641s-3.8-11.378-10.117-11.821c0,0,2.593,11.2,9.982,14.782Z" transform="translate(-254.632 -133.687)" fill="#6c63ff"/>
    <path id="Path_385" data-name="Path 385" d="M282.878,188.468s-2.039-12.161-6.052-13.348c0,0-.517,11.392,5.224,15.08Z" transform="translate(-261.775 -120.486)" fill="#6c63ff"/>
    <path id="Path_386" data-name="Path 386" d="M285.585,167.074s-2.556-12.454-6.695-13.594c0,0,.293,10.135,6.252,14.507Z" transform="translate(-262.884 -108.921)" fill="#6c63ff"/>
    <path id="Path_387" data-name="Path 387" d="M292.6,143.387s-1.676-10.187-4.814-12.137c0,0-.931,11.611,3.724,14.432Z" transform="translate(-267.596 -97.04)" fill="#6c63ff"/>
    <path id="Path_388" data-name="Path 388" d="M291.539,117.017l-5.428-16.537s-1.4,14.5,6.052,19.577Z" transform="translate(-266.687 -80.596)" fill="#6c63ff"/>
    <path id="Path_389" data-name="Path 389" d="M283.055,86.323s-8.72-10.294-8.785-11.593c0,0,2.668,11.839,12.277,16.4Z" transform="translate(-260.415 -66.834)" fill="#6c63ff"/>
    <path id="Path_390" data-name="Path 390" d="M279.624,73.762S270.513,58.608,267.37,57.77c0,0,10.019,3.208,12.719,15.438Z" transform="translate(-256.727 -57.77)" fill="#6c63ff"/>
    <path id="Path_391" data-name="Path 391" d="M294.835,122.964l-.466-.065c2.575-18.72,2.095-30.331-1.359-32.683l.265-.386C296.939,92.33,297.475,103.788,294.835,122.964Z" transform="translate(-270.43 -74.904)" fill="#444053"/>
    <path id="Path_392" data-name="Path 392" d="M278.334,203.668l-.694-.126c.317-1.727.67-3.487,1.061-5.233,3.4-15.154,6.117-29.177,7.584-39.848l.526-.382c-1.471,10.708-4.018,25.21-7.421,40.388C279,200.176,278.646,201.927,278.334,203.668Z" transform="translate(-262.216 -111.379)" fill="#444053"/>
    <path id="Path_393" data-name="Path 393" d="M305.9,350.171c-.1-.084-10.587-8.627-19.554-24.675a101.712,101.712,0,0,1-11.015-30.108c-2.575-13.194-2.2-28.455.391-42.678l.615.521c-5.8,31.928,2.654,57.115,10.82,71.776C296,340.9,306.373,349.356,306.48,349.44Z" transform="translate(-260.045 -161.953)" fill="#444053"/>
  </g>
  <path id="Path_396" data-name="Path 396" d="M963.347,742.28s-13.4-.81-11.816,8.58a2.286,2.286,0,0,0,1.187,2.412s0-.694,1.373-.466a6.384,6.384,0,0,0,1.457.074,3.063,3.063,0,0,0,1.779-.736h0s3.766-1.555,5.233-7.714c0,0,1.085-1.341,1.038-1.685l-2.258.964a4.055,4.055,0,0,1,.163,2.989s-.07-2.928-.508-2.858c-.088,0-1.173.563-1.173.563s1.327,2.845.326,4.907c0,0,.382-3.5-.74-4.7l-1.592.931s1.55,2.933.5,5.331c0,0,.27-3.673-.833-5.121l-1.443,1.122s1.462,2.891.573,4.879c0,0-.117-4.274-.885-4.6a8.763,8.763,0,0,0-1.452,1.569s1,2.1.377,3.208c0,0-.377-2.844-.689-2.858a9.588,9.588,0,0,0-1.4,3.18,6.877,6.877,0,0,1,1.085-3.361,3.786,3.786,0,0,0-1.923,1s.2-1.336,2.235-1.453a8.762,8.762,0,0,1,1.318-1.518,8.291,8.291,0,0,0-3.259.377s1.08-1.262,3.627-.689l1.425-1.159a11.709,11.709,0,0,0-3.8.037s1.3-1.113,4.19-.3l1.55-.931a14.015,14.015,0,0,0-3.636-.317s1.434-.768,4.088.065l1.113-.456s-1.667-.326-2.156-.377-.512-.186-.512-.186a5.788,5.788,0,0,1,3.133.349A13.988,13.988,0,0,0,963.347,742.28Z" transform="translate(-537.816 -479.429)" fill="#6c63ff"/>
  <ellipse id="Ellipse_50" data-name="Ellipse 50" cx="9.484" cy="1.602" rx="9.484" ry="1.602" transform="translate(410.226 273.061)" fill="#6c63ff" opacity="0.1"/>
  <path id="Path_397" data-name="Path 397" d="M457.779,522.851l-46.7,18.069L342.817,567.3c-2.575-4.781-6.374-11.323-11.076-19.088-16.164-26.793-42.916-68.466-66.725-105.087-26.835-41.263-49.927-76.106-49.927-76.106l16.718-4.846L368.368,322.57Z" transform="translate(-131.1 -255.13)" opacity="0.1"/>
  <path id="Path_398" data-name="Path 398" d="M459.779,515.851l-46.7,18.068L344.817,560.3c-2.575-4.781-6.374-11.322-11.076-19.088-16.164-26.793-42.916-68.466-66.724-105.087-26.835-41.263-49.927-76.106-49.927-76.106l16.718-4.847L370.367,315.57Z" transform="translate(-132.229 -251.389)" fill="#fff"/>
  <path id="Path_399" data-name="Path 399" d="M478.971,515.851l-46.7,18.068a351.224,351.224,0,0,1-79.337,7.3c-16.164-26.793-42.916-68.466-66.725-105.087L253,355.175,389.559,315.57Z" transform="translate(-152.125 -251.389)" opacity="0.1"/>
  <path id="Path_400" data-name="Path 400" d="M506.233,481.738S433.68,524.654,325.362,514.97L239,304.447l41.384-7.109L423.442,272.77l81.171,204.9Z" transform="translate(-145.182 -228.515)" fill="#6c63ff"/>
  <path id="Path_401" data-name="Path 401" d="M552.141,477.669a343.482,343.482,0,0,1-56.734-1.611c-21.518-2.523-43.139-7.747-61.715-17.31-15.513-7.994-28.776-16.676-40.346-27.1-30.08-27.059-48.7-65.766-65.416-134.31L470.988,272.77Z" transform="translate(-194.243 -206.349)" opacity="0.1"/>
  <path id="Path_402" data-name="Path 402" d="M594.216,395.52s-53.5,10.485-107.908,4.027c-21.518-2.537-43.162-7.747-61.715-17.31-15.513-7.994-28.776-16.676-40.346-27.1C347,321.616,327.351,270.3,307.08,166.625c0,0,88.923,21.458,176.779-25.545C483.859,141.08,513.492,326.034,594.216,395.52Z" transform="translate(-184.525 -99.496)" fill="#fff"/>
  <path id="Path_403" data-name="Path 403" d="M574.891,622.418c-21.518-2.537-43.162-7.747-61.715-17.31-15.513-7.994-28.776-16.677-40.346-27.1,31.7-2.575,36.258-19.908,36.258-19.908C532.59,595.4,574.891,622.418,574.891,622.418Z" transform="translate(-272.208 -367.468)" opacity="0.1"/>
  <path id="Path_404" data-name="Path 404" d="M405.85,255.13s47.767,5.452,92.475-19.67l3.063,9.837s-42.771,21.327-95.538,21.327Z" transform="translate(-234.94 -164.702)" fill="#6c63ff" opacity="0.3"/>
  <path id="Path_405" data-name="Path 405" d="M405.85,348.272S453.338,344.44,506.2,318.89l1.788,4.088s-19.456,24.484-102.14,30.881Z" transform="translate(-235.056 -216.239)" opacity="0.3"/>
  <path id="Path_406" data-name="Path 406" d="M417.94,388.957s47.487-3.832,100.352-29.377l1.788,4.088s-19.451,24.507-102.14,30.909Z" transform="translate(-241.762 -241.295)" opacity="0.3"/>
  <path id="Path_407" data-name="Path 407" d="M429,432.807s47.487-3.832,100.352-29.377l1.788,4.088S511.661,432.011,429,438.426Z" transform="translate(-247.897 -268.295)" opacity="0.3"/>
  <path id="Path_408" data-name="Path 408" d="M442.13,470.387s47.487-3.832,100.352-29.377l1.788,4.088s-19.451,24.5-102.14,30.913Z" transform="translate(-255.18 -291.434)" opacity="0.3"/>
  <path id="Path_409" data-name="Path 409" d="M454.23,511.107s47.487-3.832,100.352-29.377l1.788,4.088s-19.456,24.5-102.14,30.909Z" transform="translate(-261.892 -316.507)" opacity="0.1"/>
  <rect id="Rectangle_288" data-name="Rectangle 288" width="14.037" height="14.037" transform="translate(276.305 97.598) rotate(-18.8)" fill="#6c63ff" opacity="0.3"/>
  <rect id="Rectangle_289" data-name="Rectangle 289" width="14.037" height="14.037" transform="translate(283.589 114.083) rotate(-18.8)" fill="#6c63ff" opacity="0.3"/>
  <rect id="Rectangle_290" data-name="Rectangle 290" width="14.037" height="14.037" transform="translate(295.266 145.8) rotate(-18.8)" fill="#6c63ff" opacity="0.3"/>
  <rect id="Rectangle_291" data-name="Rectangle 291" width="14.037" height="14.037" transform="translate(301.965 162.824) rotate(-18.8)" fill="#6c63ff" opacity="0.3"/>
  <rect id="Rectangle_292" data-name="Rectangle 292" width="14.037" height="14.037" transform="translate(289.528 131.207) rotate(-18.8)" fill="#6c63ff" opacity="0.3"/>
  <path id="Path_410" data-name="Path 410" d="M869.909,380.324l-.5-.466c1.285-.261,2.5-.377,2.5-.377s-4.409-15.95-11.844-21.272c-3.678-2.63-6.741-7.011-8.906-10.769a162.809,162.809,0,0,0-13.264-19.447l-1.341-1.69-.577-.736c.806-1.22,1.792-2.379,1.681-3.794a.062.062,0,0,1,0-.028,1.821,1.821,0,0,0,0-.224,2.6,2.6,0,0,0-.093-.517l-.051.079c-.629-1.825-3.045-2.63-4.837-3.636-4.19-2.361-5.982-7.519-6.876-12.314-.7-3.725-1.276-7.915-4.19-10.312-1.862-1.541-4.395-2.048-6.271-3.58-1.778-1.453-2.77-3.655-3.887-5.68a22.75,22.75,0,0,0-7.565-8.534,12.618,12.618,0,0,0-10.927-1.443c-1.364.521-2.6,1.332-3.953,1.895-3.352,1.4-7.193,1.211-10.512,2.686-4.088,1.816-6.746,5.829-9.176,9.637a45.855,45.855,0,0,0-4.353,7.752v-.3a11.086,11.086,0,0,0-.866,4.032,6.053,6.053,0,0,0,.191,1.75c.5,1.862,2,2.891,3.78,3.608a15.725,15.725,0,0,0,.41,1.755A17.226,17.226,0,0,0,779.6,319.763c.154.056.312.093.466.14a3.7,3.7,0,0,0,.554,1.024c1.485,1.862,4.465,1.331,6.4-.023.079-.051.154-.116.228-.172a6.945,6.945,0,0,0,.084.787c.042.223.074.466.121.666,1.746,9.409,6.215,14.488,6.215,14.488s.414.624,1.089,1.657c-.354,5.191,2.016,9.921,4.753,13.576-2.36,1.364-7.449,4.036-10.6,3.813,0,0-11.565,1.494-12.905.745-.186-.1-.363.037-.531.354-3.184-1.941-13.366-7.538-14.237-.354-.787,6.518,8.492,7.351,12.91,7.384-.2,1.909-.312,3.436-.312,3.436l19-1.3,9.893-1.457a11.9,11.9,0,0,1-3.534,3.366s-8.943,7.24-10.489,7.3c-.219,0-.289.219-.256.568-3.762,0-15.461.545-12.216,7.063,2.947,5.908,11.243,1.82,15-.438.885,1.718,1.639,3.063,1.639,3.063l15.331-10.918,3.319-2.793a11.812,11.812,0,0,0,3.3-.638.389.389,0,0,0,.047.121,6.322,6.322,0,0,1,.265,1.052c.931,5.349-2.2,17.826-2.2,17.826s-6.881,17.547-3.575,19.94.861,12.491.861,12.491a18.655,18.655,0,0,0,1.983,2.738h0a8.307,8.307,0,0,0,1.159,1.1,10.76,10.76,0,0,0-.382,1.28,10.438,10.438,0,0,0,.545,6.443c2.272,5.512.889,13.5.889,13.5l-4.46,30.131c-2.142-.326-4.907-.6-5.936,0-1.578.889-1.061,5.373,2.6,7.3a9.433,9.433,0,0,1-3.771,1.737c-3.259.745-5.55,1.22-7.058,1.508-.1,0-7.821-1.7-9.8-.577s-1.029,7.375,4.614,8.906c5.522,1.495,26.113,3.687,32.045,2.793l.377-.065c5.042-1,.615-7.621.056-8.427-.037-.27-.07-.554-.107-.861-.079-.689-.149-1.48-.2-2.328,5.624.517,11.173.768,13.72.386a1.485,1.485,0,0,0,.335-.06c4.465-.885.554-6.741.051-7.449q-.033-.27-.07-.573v-.051c0-.135-.033-.279-.047-.419a1.8,1.8,0,0,0-.037-.363c-.037-.126,0-.223-.033-.34q-.028-.344-.056-.712v-.3c0-.186-.023-.372-.033-.563v-.312c0-.279,0-.568-.028-.857v-2.277c0-.312.028-.633.047-.954l.028-.344c0-.237.037-.466.06-.708a1.116,1.116,0,0,1,.037-.349c.037-.326.079-.652.126-.982a2.152,2.152,0,0,1,.047-.293c.042-.247.084-.5.13-.75a1.818,1.818,0,0,1,.074-.372q.084-.405.182-.81a.971.971,0,0,1,.051-.223c.084-.326.177-.647.275-.968.033-.112.07-.223.107-.335.079-.242.163-.466.252-.717l.112-.3c.126-.317.261-.629.4-.931.037-.079.079-.158.121-.237.116-.242.242-.466.372-.717l.158-.275c.177-.3.358-.6.559-.88,5.121-7.3,6.471-21.379,6.346-24.442s.61-9.418,1.527-10.359a80.873,80.873,0,0,0,6.327-9.358c.386-.689.722-1.336.987-1.913,1.518-.526,2.523-.931,2.523-.931h0a21.581,21.581,0,0,1-.763-6,18.19,18.19,0,0,1,5.624-13.418c6.639-6.257,7.565-12.458,7.654-14.842v-.442C869.932,380.538,869.909,380.324,869.909,380.324Z" transform="translate(-432.47 -229.66)" fill="url(#linear-gradient)"/>
  <path id="Path_411" data-name="Path 411" d="M909.3,576.92a80.043,80.043,0,0,1-6.052,9.251c-.875.931-1.578,7.221-1.457,10.242s-1.159,16.951-6.052,24.167-2.379,19.689-2.379,19.689l-7.808,2.738h-9.381l-6.462-1.932-1.7-4.7s2.272-.349,7.914-1.69a7.323,7.323,0,0,0,5.843-6.644l3.962-27.668s1.169-6.984-.759-11.816a9.619,9.619,0,0,1,.633-8.427l.126-.2a78.908,78.908,0,0,1,12.342-7.849c5.517-2.663,11.113-3.929,12.7.8C910.967,573.489,910.3,575.058,909.3,576.92Z" transform="translate(-489.358 -376.098)" fill="#a5636d"/>
  <path id="Path_412" data-name="Path 412" d="M909.3,576.92a80.043,80.043,0,0,1-6.052,9.251c-.875.931-1.578,7.221-1.457,10.242s-1.159,16.951-6.052,24.167c-3.445,5.089-3.217,12.78-2.793,16.881.182,1.718.405,2.793.405,2.793l-7.808,2.738h-9.372l-6.462-1.918-1.7-4.7s.568-.088,1.862-.34,3.259-.68,6.08-1.35a7.324,7.324,0,0,0,5.815-6.644l3.962-27.668s1.169-6.984-.759-11.816a9.619,9.619,0,0,1,.633-8.427l.126-.2a78.908,78.908,0,0,1,12.342-7.849c5.517-2.663,11.113-3.929,12.7.8C910.967,573.489,910.3,575.058,909.3,576.92Z" transform="translate(-489.358 -376.096)" opacity="0.05"/>
  <path id="Path_413" data-name="Path 413" d="M893.355,716.411l-7.808,2.738h-9.381l-6.462-1.937-1.7-4.7s.568-.088,1.862-.34a3.515,3.515,0,0,0,2.7,3.8l3.669.126c.517,0,1.038.028,1.55.028a46.786,46.786,0,0,0,15.168-2.519C893.141,715.322,893.355,716.411,893.355,716.411Z" transform="translate(-488.845 -463.347)" opacity="0.1"/>
  <path id="Path_414" data-name="Path 414" d="M868.037,715.888l-3.673-.126a3.583,3.583,0,0,1-2.589-4.614s-6.611-1.5-8.3-.507-.875,6.462,3.9,7.8c4.656,1.308,22.1,3.231,27.11,2.444l.321-.056c4.544-.931,0-7.449,0-7.449h0a46.964,46.964,0,0,1-16.77,2.5Z" transform="translate(-480.637 -462.348)" fill="#bebed0"/>
  <path id="Path_415" data-name="Path 415" d="M880.051,579.6c-.247.494-.512,1.006-.815,1.541a86.753,86.753,0,0,1-6.648,10.149c-.987,1.052-1.774,8.147-1.648,11.574s-1.308,19.125-6.83,27.273c-2.826,4.19-3.464,9.893-3.417,14.484q.021,2.333.275,4.656c.2,1.9.466,3.077.466,3.077l-8.808,3.087h-10.6l-7.3-2.169-1.909-5.326s.638-.1,2.072-.386,3.669-.759,6.862-1.513a8.277,8.277,0,0,0,6.578-7.5L852.8,607.32s1.318-7.891-.852-13.338a10.707,10.707,0,0,1-.522-6.374,10.167,10.167,0,0,1,1.4-3.361s1.7-1.341,4.274-3.115c1.136-.782,2.454-1.648,3.869-2.523,6.22-3.85,14.4-7.78,18.32-4.916a5.069,5.069,0,0,1,1.806,2.6C881.248,576.835,880.806,578.059,880.051,579.6Z" transform="translate(-470.092 -388.814)" fill="#a5636d"/>
  <path id="Path_416" data-name="Path 416" d="M861.41,738.275l-8.808,3.087H842.024l-7.3-2.169-1.909-5.326s.638-.1,2.072-.386a3.887,3.887,0,0,0,1.238,3.44,4.147,4.147,0,0,0,2.626.987l3.338.107c.582,0,1.169.032,1.75.032a52.956,52.956,0,0,0,17.124-2.849C861.173,737.093,861.41,738.275,861.41,738.275Z" transform="translate(-469.526 -474.736)" opacity="0.1"/>
  <path id="Path_417" data-name="Path 417" d="M832.808,737.684l-3.333-.112a4.191,4.191,0,0,1-2.631-.987,4.116,4.116,0,0,1-1.1-4.251s-7.449-1.69-9.372-.573-.982,7.3,4.4,8.808c5.275,1.476,24.94,3.645,30.6,2.761l.359-.065c5.121-1.052,0-8.417,0-8.417h0a52.827,52.827,0,0,1-18.925,2.835Z" transform="translate(-460.218 -473.613)" fill="#bebed0"/>
  <path id="Path_418" data-name="Path 418" d="M918.354,576.931c-3.189,1.113-7.872,2.588-10.443,2.649a4.684,4.684,0,0,1-.8-.037h0c-1.8-.247-7.351.149-12.445.605-2.044.182-4.009.372-5.633.54-2.421.251-4.088.433-4.088.433v-1.578c1.136-.782,2.454-1.648,3.869-2.523,6.22-3.85,14.4-7.78,18.32-4.916,5.517-2.663,11.113-3.929,12.7.8C920.026,573.5,919.355,575.069,918.354,576.931Z" transform="translate(-498.478 -367.924)" opacity="0.1"/>
  <path id="Path_419" data-name="Path 419" d="M933.615,500.553c-.089,2.36-.973,8.487-7.314,14.679-8.082,7.891-4.656,19.223-4.656,19.223s-9.637,3.785-13.795,3.888a4.691,4.691,0,0,1-.8-.037c-2.5-.349-12.4.568-18.1,1.145-2.421.251-4.088.433-4.088.433v-33.52l44.661-10.843,4.046,4.027A7.467,7.467,0,0,1,933.615,500.553Z" transform="translate(-498.862 -326.033)" fill="#5c5c8e"/>
  <path id="Path_420" data-name="Path 420" d="M955.5,576.89" transform="translate(-540.007 -371.07)" fill="none"/>
  <g id="Group_23" data-name="Group 23" transform="translate(386.026 169.498)" opacity="0.1">
    <path id="Path_421" data-name="Path 421" d="M885.646,588.524l-.736.079v.354s1.667-.181,4.088-.433c4.088-.414,10.331-1,14.461-1.169C900.6,587.095,891.158,587.965,885.646,588.524Z" transform="translate(-884.91 -544.589)"/>
    <path id="Path_422" data-name="Path 422" d="M957.544,499.582,953.5,495.55l-2.7.675,3.389,3.375a7.42,7.42,0,0,1,0,1.01c-.088,2.356-.973,8.487-7.314,14.679-8.082,7.887-4.656,19.223-4.656,19.223s-7.975,3.129-12.542,3.776a11.538,11.538,0,0,1,1.3.07,4.663,4.663,0,0,0,.8.042c4.157-.1,13.795-3.887,13.795-3.887s-3.445-11.336,4.656-19.223c6.341-6.192,7.225-12.323,7.314-14.679A7.44,7.44,0,0,0,957.544,499.582Z" transform="translate(-908.837 -495.55)"/>
  </g>
  <path id="Path_423" data-name="Path 423" d="M781.181,450.358s-13.5-9.367-14.493-.931,14.493,7.23,14.493,7.23Z" transform="translate(-432.664 -292.295)" fill="#a5636d"/>
  <path id="Path_424" data-name="Path 424" d="M818.321,442.13s-7.3,4.833-11.346,4.535c0,0-11.043,1.481-12.328.74s-2.067,10.708-2.067,10.708l18.157-1.28,11.639-1.778s5.819-3.548,5.819-6.606S818.321,442.13,818.321,442.13Z" transform="translate(-447.509 -290.423)" fill="#f7cddd"/>
  <path id="Path_425" data-name="Path 425" d="M818.321,442.13s-7.3,4.833-11.346,4.535c0,0-11.043,1.481-12.328.74s-2.067,10.708-2.067,10.708l18.157-1.28,11.639-1.778s5.819-3.548,5.819-6.606S818.321,442.13,818.321,442.13Z" transform="translate(-447.509 -290.423)" opacity="0.05"/>
  <path id="Path_426" data-name="Path 426" d="M809.616,494.472s-16.42-.68-12.742,6.983S813,499.817,813,499.817Z" transform="translate(-449.088 -321.852)" fill="#a5636d"/>
  <path id="Path_427" data-name="Path 427" d="M847.006,429.876s-13.311-9.958-11.434-22.086,11.434,9.283,11.434,9.283Z" transform="translate(-470.489 -267.926)" fill="#5c5c8e"/>
  <path id="Path_428" data-name="Path 428" d="M813.808,322.094a16.844,16.844,0,0,1-4.735,11.69,15.83,15.83,0,0,1-2.43,2.072,17.36,17.36,0,0,1-5.522,2.551,17.538,17.538,0,0,1-2.388.424c-.577.056-1.159.088-1.751.088a16.416,16.416,0,0,1-5.545-.931,16.825,16.825,0,1,1,22.37-15.876Z" transform="translate(-440.598 -207.776)" fill="#a5636d"/>
  <path id="Path_429" data-name="Path 429" d="M927.153,500.553c-1.508.279-3.371.782-3.371,1.564,0,1.318-21.034,8.417-21.034,8.417s.787,1.834-1.313,4.991-19.2,21.295-19.2,21.295l.056.54.219,2.09,1.043,9.991s-6.574-2.365-8.678-2.1a2.885,2.885,0,0,1-2.1-.978,10.162,10.162,0,0,1,1.4-3.361s1.7-1.341,4.274-3.115v-33.52l44.661-10.843,4.046,4.027A7.482,7.482,0,0,1,927.153,500.553Z" transform="translate(-492.362 -327.152)" opacity="0.1"/>
  <path id="Path_430" data-name="Path 430" d="M905.8,423.593s-5.261.521-5.261,1.839-21.034,8.417-21.034,8.417.787,1.834-1.313,4.991-19.2,21.3-19.2,21.3l1.317,12.617s-6.574-2.365-8.678-2.1c-.931.116-1.979-.75-2.84-1.76a18.3,18.3,0,0,1-1.895-2.705s2.37-10-.787-12.361,3.417-19.717,3.417-19.717,2.971-12.337,2.1-17.631a6.357,6.357,0,0,0-.252-1.043.372.372,0,0,0-.037-.116c-1.862-5.056-22.049-47.487-22.049-47.487a30.484,30.484,0,0,1,.251-3.6c.042-.331.1-.675.158-1.024a17.363,17.363,0,0,1,.41-1.862,11.613,11.613,0,0,1,.382-1.159c.624-1.6,1.578-2.835,3-2.863a8.824,8.824,0,0,1,5.279-2.221c2.71-.354,6.578,0,11.816,2.221,12.351,5.252,15.247,5.522,15.247,5.522l6.206,8.147,1.276,1.671a161.005,161.005,0,0,1,12.668,19.228c2.067,3.725,5,8.05,8.506,10.652C901.592,407.82,905.8,423.593,905.8,423.593Z" transform="translate(-469.031 -246.529)" fill="#f7cddd"/>
  <path id="Path_431" data-name="Path 431" d="M894.65,437.05S912.2,441.389,919,452.33Z" transform="translate(-503.517 -287.259)" opacity="0.1"/>
  <path id="Path_432" data-name="Path 432" d="M906.3,478.34s3.319,22.287,2.4,23.963S906.3,478.34,906.3,478.34Z" transform="translate(-509.325 -313.324)" opacity="0.1"/>
  <path id="Path_433" data-name="Path 433" d="M886.349,496.443c-1.276,1.671-6.457,14.591-6.457,14.591l1.494,21.7,1.318,12.617s-6.569-2.365-8.674-2.1c-.931.116-1.983-.749-2.84-1.76,1.364-7.388,4.283-22.85,4.809-23.148.694-.4,4.246-12.817,4.432-16.295s5.121-11.229,5.121-11.229S887.634,494.772,886.349,496.443Z" transform="translate(-490.331 -324.302)" opacity="0.1"/>
  <path id="Path_434" data-name="Path 434" d="M859,409.369c-.326.982-.829,6.7-.829,6.7-.363,5.037-4.19,6.686-6.541,7.216a6.334,6.334,0,0,0-.251-1.043c-1.578-4.465-22.086-47.585-22.086-47.585a28.336,28.336,0,0,1,.819-6.49c4.465-1.313,11.532.708,11.532.708,2.044-.27,8.711,12.985,8.711,12.985s4.442,10.149,4.93,11.532,0,3.65.2,4.441,2.272,1.471,2.565,2.561.1,3.259.3,3.645S859.328,408.382,859,409.369Z" transform="translate(-467.611 -247.987)" opacity="0.1"/>
  <path id="Path_435" data-name="Path 435" d="M852.474,407.66c-.326.987-.829,6.7-.829,6.7a7.446,7.446,0,0,1-5.252,6.848,11.009,11.009,0,0,1-3.157.629l-3.17,2.756-14.642,10.778s-5.456-10.089-3.976-10.145S831.468,418,831.468,418c2.612-1.4,5.228-6.052,6.443-8.445a7.349,7.349,0,0,1-.158-.866c-.526-4.465-11.569-21.56-11.569-21.56s-4.269-5.023-5.931-14.33c-.047-.214-.079-.433-.121-.656a6.688,6.688,0,0,1-.084-.875c-.2-3.58,2.407-4.884,5.5-5.191h0a22.065,22.065,0,0,1,4.842.149,35.043,35.043,0,0,1,4.735.931c1.322-.177,4.581,5.321,6.718,9.218h0c1.15,2.114,1.979,3.762,1.979,3.762s4.441,10.154,4.93,11.532,0,3.655.2,4.441,2.272,1.476,2.565,2.565.1,3.259.3,3.645S852.8,406.673,852.474,407.66Z" transform="translate(-462.58 -248.167)" fill="#f7cddd"/>
  <path id="Path_436" data-name="Path 436" d="M848.116,352.462c-2.793,2.854-7.3,2.863-10.927,1.4s-6.69-4.092-10.047-6.136c-2.179-1.331-4.488-2.421-6.634-3.794h0c-.317-.2-.624-.41-.931-.624-2.477-1.75-4.623-4-7.188-5.587a11.173,11.173,0,0,0-5.773-1.862,6.565,6.565,0,0,0-2.752.577,3.724,3.724,0,0,0-.465.228,11.867,11.867,0,0,0-2.328,1.746c-.726.652-1.42,1.345-2.184,1.955-.047-.214-.079-.433-.121-.656a6.678,6.678,0,0,1-.084-.875c-.577.056-1.159.088-1.751.088a16.414,16.414,0,0,1-5.545-.931.378.378,0,0,0-.042-.209c-.629-3.315-1.764-6.825-4.432-8.687-1.546-1.08-4.013-1.522-6.155-2.328a16.826,16.826,0,1,1,31.7,1.82c2.709-.354,6.578,0,11.816,2.221,12.352,5.252,15.247,5.522,15.247,5.522l6.206,8.147a6.963,6.963,0,0,0-1.5,3.231C844.116,349.9,846.253,351.428,848.116,352.462Z" transform="translate(-441.54 -208.8)" opacity="0.1"/>
  <path id="Path_437" data-name="Path 437" d="M782.914,314.1c2.668,1.862,3.8,5.368,4.437,8.678a6.769,6.769,0,0,0,1.015,2.942c1.4,1.834,4.265,1.318,6.113,0s3.305-3.315,5.368-4.246c2.737-1.238,5.959-.335,8.524,1.271s4.711,3.855,7.188,5.587c2.4,1.69,5.07,2.9,7.565,4.418,3.357,2.044,6.425,4.684,10.047,6.136s8.147,1.448,10.922-1.4c-1.862-1.034-4-2.561-3.855-4.777s2.724-3.869,2.551-6.141-2.845-3.161-4.763-4.279c-4-2.328-5.712-7.449-6.569-12.174-.666-3.7-1.215-7.826-3.976-10.2-1.783-1.527-4.19-2.025-5.987-3.538-1.7-1.439-2.644-3.613-3.724-5.619a22.349,22.349,0,0,0-7.221-8.441,11.58,11.58,0,0,0-10.433-1.425c-1.3.517-2.491,1.318-3.776,1.862-3.2,1.4-6.867,1.2-10.038,2.654-3.906,1.8-6.443,5.764-8.767,9.53-1.965,3.226-5.862,8.916-4.758,13.106C773.877,312.307,780.018,312.079,782.914,314.1Z" transform="translate(-437.487 -193.896)" fill="#4c3e42"/>
  <g id="Group_24" data-name="Group 24" transform="translate(335.087 105.883)" opacity="0.1">
    <path id="Path_438" data-name="Path 438" d="M921.343,378.652a2.9,2.9,0,0,0-.088-.512c-.708,1.113-1.588,2.193-1.671,3.5a3.158,3.158,0,0,0,.075.9C920.445,381.283,921.455,380.1,921.343,378.652Z" transform="translate(-851.132 -354.657)"/>
    <path id="Path_439" data-name="Path 439" d="M833.945,360.867c-3.622-1.452-6.685-4.092-10.042-6.136-2.5-1.522-5.173-2.728-7.57-4.418-2.477-1.751-4.623-4-7.188-5.587s-5.782-2.509-8.525-1.276c-2.062.931-3.515,2.91-5.368,4.251s-4.693,1.862-6.113,0a6.765,6.765,0,0,1-1.015-2.942c-.629-3.31-1.769-6.816-4.432-8.678-2.9-2.025-9.041-1.8-10.154-6.052a6.607,6.607,0,0,1-.144-2.328,9.3,9.3,0,0,0-.647,5.47c1.117,4.274,7.258,4.046,10.154,6.052,2.668,1.862,3.8,5.373,4.437,8.683a6.821,6.821,0,0,0,1.01,2.942c1.4,1.834,4.265,1.318,6.117-.023s3.3-3.315,5.368-4.246c2.737-1.234,5.959-.331,8.524,1.276s4.712,3.855,7.188,5.587c2.4,1.695,5.07,2.9,7.565,4.418,3.357,2.049,6.425,4.688,10.047,6.141s8.147,1.443,10.922-1.4a13.375,13.375,0,0,1-2.035-1.345A11.6,11.6,0,0,1,833.945,360.867Z" transform="translate(-772.561 -327.7)"/>
  </g>
  <path id="Path_440" data-name="Path 440" d="M721.1,451.112,758.348,437.2a3.538,3.538,0,0,1,4.558,2.076h0a3.543,3.543,0,0,1-2.081,4.558L723.58,457.751l-7.98-.8Z" transform="translate(-405.311 -287.678)" fill="#5c5c8e"/>
  <path id="Path_441" data-name="Path 441" d="M761.764,438.788h0a3.548,3.548,0,0,1-2.081,4.562l-37.245,13.911-6-.6-.861.931,7.98.8,37.245-13.916a3.543,3.543,0,0,0,2.081-4.558h0a3.529,3.529,0,0,0-1.448-1.769A3.859,3.859,0,0,1,761.764,438.788Z" transform="translate(-405.3 -288.351)" fill="#fff" opacity="0.1"/>
  <path id="Path_442" data-name="Path 442" d="M698.8,415.58l2.481,6.639-6.551-.656-1.434-.144,1.96-2.076Z" transform="translate(-382.079 -253.255)" fill="#efc8c4"/>
  <path id="Path_443" data-name="Path 443" d="M717.566,475.42a1.422,1.422,0,0,1,.382.419.6.6,0,0,1,0,.647,1.456,1.456,0,0,1-.363.256,1.187,1.187,0,0,0-.531.9l-1.434-.144Z" transform="translate(-404.27 -309.559)" fill="#727a9c"/>
  <path id="Path_444" data-name="Path 444" d="M649.891,297.652l-6.28-3.063a.759.759,0,0,1-.349-1.015l.666-1.369a.754.754,0,0,1,1.015-.349l4.232,2.062,4.418-9.06a.764.764,0,0,1,1.015-.354l1.369.67a.754.754,0,0,1,.349,1.015L650.906,297.3a.759.759,0,0,1-1.015.349Z" transform="translate(-364.574 -193.874)" fill="#3acc6c"/>
  <path id="Path_445" data-name="Path 445" d="M679.361,381.811l-6.281-3.063a.759.759,0,0,1-.349-1.015l.666-1.369a.764.764,0,0,1,1.02-.349l4.227,2.062,4.414-9.069a.763.763,0,0,1,1.015-.354l1.364.67a.759.759,0,0,1,.354,1.015l-5.419,11.113a.768.768,0,0,1-1.02.349Z" transform="translate(-380.819 -245.273)" fill="#3acc6c"/>
  <path id="Path_446" data-name="Path 446" d="M666.129,340.318l-6.28-3.063a.763.763,0,0,1-.354-1.015l.67-1.369a.754.754,0,0,1,1.015-.349l4.232,2.063,4.418-9.074a.759.759,0,0,1,1.015-.349l1.369.666a.768.768,0,0,1,.349,1.02l-5.424,11.122a.759.759,0,0,1-1.015.349Z" transform="translate(-373.524 -219.929)" fill="#3acc6c"/>
  <path id="Path_447" data-name="Path 447" d="M692.161,419.822l-6.281-3.063a.759.759,0,0,1-.349-1.015l.666-1.369a.759.759,0,0,1,1.015-.349l4.232,2.062,4.418-9.06a.768.768,0,0,1,1.02-.354l1.364.671a.754.754,0,0,1,.349,1.015l-5.415,11.113a.768.768,0,0,1-1.019.349Z" transform="translate(-387.876 -268.495)" fill="#3acc6c"/>
  <path id="Path_448" data-name="Path 448" d="M186.765,693.36s2.77,3.622-1.276,9.088-7.388,10.084-6.052,13.5c0,0,6.108-10.154,11.076-10.294S192.23,699.468,186.765,693.36Z" transform="translate(-106.118 -453.294)" fill="#3acc6c"/>
  <path id="Path_449" data-name="Path 449" d="M186.958,693.36a4.467,4.467,0,0,1,.568,1.136c4.847,5.7,7.449,11.015,2.77,11.173-4.344.121-9.553,7.887-10.8,9.847a3.572,3.572,0,0,0,.144.465s6.108-10.154,11.076-10.294S192.424,699.468,186.958,693.36Z" transform="translate(-106.312 -453.294)" opacity="0.1"/>
  <path id="Path_450" data-name="Path 450" d="M205.848,702.335c0,1.271-.144,2.328-.321,2.328s-.317-1.034-.317-2.328.177-.675.354-.675S205.848,701.06,205.848,702.335Z" transform="translate(-120.052 -457.651)" fill="#ffd037"/>
  <path id="Path_451" data-name="Path 451" d="M207.862,705.517c-1.117.61-2.1.982-2.179.824s.754-.773,1.862-1.4.675-.168.759,0S208.984,704.907,207.862,705.517Z" transform="translate(-120.302 -459.315)" fill="#ffd037"/>
  <path id="Path_452" data-name="Path 452" d="M156.983,693.36s-2.765,3.622,1.28,9.088,7.384,10.084,6.052,13.5c0,0-6.1-10.154-11.076-10.294S151.517,699.468,156.983,693.36Z" transform="translate(-90.964 -453.294)" fill="#3acc6c"/>
  <path id="Path_453" data-name="Path 453" d="M156.955,693.36a4.561,4.561,0,0,0-.563,1.136c-4.851,5.7-7.449,11.015-2.77,11.173,4.339.121,9.549,7.887,10.8,9.847a3.592,3.592,0,0,1-.149.465s-6.1-10.2-11.085-10.336S151.489,699.468,156.955,693.36Z" transform="translate(-90.936 -453.294)" opacity="0.1"/>
  <path id="Path_454" data-name="Path 454" d="M153.05,702.335c0,1.271.14,2.328.317,2.328s.321-1.034.321-2.328-.177-.675-.354-.675S153.05,701.06,153.05,702.335Z" transform="translate(-92.176 -457.651)" fill="#ffd037"/>
  <path id="Path_455" data-name="Path 455" d="M148.475,705.517c1.122.61,2.1.982,2.179.824s-.754-.773-1.862-1.4-.68-.168-.764,0S147.357,704.907,148.475,705.517Z" transform="translate(-89.37 -459.315)" fill="#ffd037"/>
  <ellipse id="Ellipse_51" data-name="Ellipse 51" cx="28.953" cy="4.441" rx="28.953" ry="4.441" transform="translate(44.384 281.464)" fill="#6c63ff" opacity="0.1"/>
  <path id="Path_456" data-name="Path 456" d="M177.588,729.435l-.14,1.131-.191,1.6-.084.666-.191,1.6-.088.666-.191,1.6-2.216,18.157c-.2,1.62-2.849,2.886-6.052,2.886h-11.5c-3.2,0-5.843-1.266-6.052-2.886l-2.216-18.157-.2-1.6-.079-.666-.2-1.6-.079-.666-.2-1.6-.14-1.131c-.107-.931,1.322-1.695,3.133-1.695H174.46C176.275,727.74,177.7,728.518,177.588,729.435Z" transform="translate(-89.353 -471.668)" fill="#65617d"/>
  <path id="Path_457" data-name="Path 457" d="M155.336,682.05l-.2,1.6H126l-.191-1.6Z" transform="translate(-67.236 -423.152)" fill="#9d9cb5"/>
  <path id="Path_458" data-name="Path 458" d="M155.377,686.91l-.2,1.6H126.6l-.2-1.6Z" transform="translate(-67.551 -425.749)" fill="#9d9cb5"/>
  <path id="Path_459" data-name="Path 459" d="M155.413,691.77l-.2,1.6H127.186l-.2-1.6Z" transform="translate(-67.867 -428.347)" fill="#9d9cb5"/>
  <path id="Path_394" data-name="Path 394" d="M1016.5,805.841s-19.684-1.187-17.361,12.607a3.356,3.356,0,0,0,1.746,3.543s.037-1.024,2.021-.675a9,9,0,0,0,2.137.1,4.476,4.476,0,0,0,2.616-1.08h0s5.531-2.286,7.682-11.327c0,0,1.592-1.974,1.532-2.482l-3.324,1.4a5.948,5.948,0,0,1,.242,4.386s-.107-4.3-.745-4.19c-.13.023-1.727.833-1.727.833s1.955,4.19.466,7.207c0,0,.559-5.145-1.089-6.909l-2.328,1.369s2.281,4.311.736,7.826c0,0,.4-5.4-1.229-7.5l-2.118,1.653s2.146,4.251.838,7.165c0,0-.172-6.28-1.294-6.755a12.191,12.191,0,0,0-2.137,2.328s1.466,3.082.559,4.712c0,0-.559-4.19-1.02-4.19,0,0-1.862,2.77-2.039,4.656a10.057,10.057,0,0,1,1.592-4.935,5.535,5.535,0,0,0-2.826,1.462s.289-1.96,3.259-2.132a12.919,12.919,0,0,1,1.937-2.23,12.183,12.183,0,0,0-4.791.554s1.592-1.862,5.335-1.01l2.091-1.708s-3.925-.535-5.587.056c0,0,1.913-1.634,6.15-.442l2.277-1.359a20.731,20.731,0,0,0-5.335-.466s2.1-1.136,6.006.093l1.63-.731s-2.454-.466-3.17-.559-.754-.275-.754-.275a8.484,8.484,0,0,1,4.6.512S1016.563,806.059,1016.5,805.841Z" transform="translate(-563.228 -513.394)" fill="#6c63ff"/>
  <ellipse id="Ellipse_48" data-name="Ellipse 48" cx="13.93" cy="2.356" rx="13.93" ry="2.356" transform="translate(425.787 307.442)" fill="#6c63ff" opacity="0.1"/>
  <path id="Path_395" data-name="Path 395" d="M1106.4,727.784s-11.094-.666-9.777,7.109a1.894,1.894,0,0,0,.982,2s.023-.577,1.14-.382a4.956,4.956,0,0,0,1.206.06,2.49,2.49,0,0,0,1.471-.61h0s3.119-1.29,4.335-6.388c0,0,.9-1.113.861-1.4l-1.862.8a3.36,3.36,0,0,1,.135,2.472s-.06-2.425-.419-2.365c-.075,0-.973.466-.973.466s1.1,2.356.27,4.064c0,0,.317-2.9-.614-3.892l-1.318.768s1.285,2.43.415,4.413c0,0,.223-3.04-.694-4.227l-1.192.931s1.206,2.4.466,4.041c0,0-.1-3.538-.731-3.808a7.471,7.471,0,0,0-1.206,1.3s.829,1.741.317,2.659c0,0-.317-2.36-.573-2.37a7.817,7.817,0,0,0-1.15,2.635,5.69,5.69,0,0,1,.9-2.793,3.137,3.137,0,0,0-1.6.824s.163-1.1,1.862-1.2a7.233,7.233,0,0,1,1.09-1.257,6.862,6.862,0,0,0-2.7.312s.9-1.043,3.007-.573l1.183-.959a9.732,9.732,0,0,0-3.152.033s1.08-.931,3.469-.252l1.285-.768a11.747,11.747,0,0,0-3.012-.261,4.617,4.617,0,0,1,3.385.056l.931-.414s-1.4-.27-1.788-.312-.428-.158-.428-.158a4.8,4.8,0,0,1,2.6.289A11.1,11.1,0,0,0,1106.4,727.784Z" transform="translate(-615.371 -471.684)" fill="#6c63ff"/>
  <ellipse id="Ellipse_49" data-name="Ellipse 49" cx="7.854" cy="1.327" rx="7.854" ry="1.327" transform="translate(475.537 264.559)" fill="#6c63ff" opacity="0.1"/>
</svg>
