<svg xmlns="http://www.w3.org/2000/svg" width="50" height="50" viewBox="0 0 50 50">
  <g id="Group_60" data-name="Group 60" transform="translate(-970 -4199)">
    <g id="Group_59" data-name="Group 59" transform="translate(-91)">
      <circle id="Ellipse_92" data-name="Ellipse 92" cx="25" cy="25" r="25" transform="translate(1061 4199)" fill="#fff"/>
    </g>
    <g id="icons8-twitter" transform="translate(979 4207.754)">
      <path id="Path_703" data-name="Path 703" d="M31.066,8.854a11.066,11.066,0,0,1-3.189.872,5.571,5.571,0,0,0,2.44-3.07A11.188,11.188,0,0,1,26.793,8a5.554,5.554,0,0,0-9.608,3.8,5.43,5.43,0,0,0,.145,1.264,15.741,15.741,0,0,1-11.445-5.8A5.556,5.556,0,0,0,7.6,14.678a5.522,5.522,0,0,1-2.515-.7v.07A5.55,5.55,0,0,0,9.542,19.5a5.527,5.527,0,0,1-1.463.2,5.413,5.413,0,0,1-1.044-.1,5.562,5.562,0,0,0,5.185,3.859,11.137,11.137,0,0,1-6.894,2.374A11.01,11.01,0,0,1,4,25.748a15.79,15.79,0,0,0,24.313-13.3c0-.238-.009-.48-.018-.718A11.375,11.375,0,0,0,31.066,8.854Z" fill="#625ae8"/>
    </g>
  </g>
</svg>
