<svg xmlns="http://www.w3.org/2000/svg" width="50" height="50" viewBox="0 0 50 50">
  <g id="Group_61" data-name="Group 61" transform="translate(-1039 -4199)">
    <circle id="Ellipse_93" data-name="Ellipse 93" cx="25" cy="25" r="25" transform="translate(1039 4199)" fill="#fff"/>
    <g id="Group_56" data-name="Group 56" transform="translate(-51.179 -17.179)">
      <rect id="Rectangle_321" data-name="Rectangle 321" width="16.331" height="25.976" rx="8" transform="translate(1106.375 4226.916)" fill="#625ae8"/>
      <path id="icons8-facebook-filled_1_" data-name="icons8-facebook-filled (1)" d="M25.143,6.441H19.5l-6.12.85c-2.012,0-5.2,4.124-5.2,6.137L7.124,28.448c0,2.012,1.611,4.149,3.624,4.149l6.6,1.4,13.624.623a3.647,3.647,0,0,0,3.645-3.645l-1.268-20.7C33.353,8.268,27.156,6.441,25.143,6.441Zm2.916,8.495H26.6c-1.56,0-2.187.365-2.187,1.458v2.187H28.06l-.729,3.645H24.414V33.163H20.769V22.227H17.853V18.582h2.916V16.394c0-2.916,1.458-5.1,4.375-5.1a4.5,4.5,0,0,1,2.916.729Z" transform="translate(1092 4219)" fill="#fff"/>
    </g>
  </g>
</svg>
