<svg id="Group_41" data-name="Group 41" xmlns="http://www.w3.org/2000/svg" xmlns:xlink="http://www.w3.org/1999/xlink" width="518" height="397.559" viewBox="0 0 518 397.559">
  <defs>
    <linearGradient id="linear-gradient" x1="0.5" y1="1" x2="0.5" gradientUnits="objectBoundingBox">
      <stop offset="0" stop-color="gray" stop-opacity="0.251"/>
      <stop offset="0.54" stop-color="gray" stop-opacity="0.122"/>
      <stop offset="1" stop-color="gray" stop-opacity="0.102"/>
    </linearGradient>
  </defs>
  <path id="Path_654" data-name="Path 654" d="M299.134,56.366c-18.006-.1-35.365-4.734-52.761-8.331a459.98,459.98,0,0,0-58.642-8.212c-20.985-1.578-42.454-1.708-62.834,2.48S85.182,55.358,73.45,68.908c-19.915,22.956-14.5,53.663-4.019,80.1,12.428,31.355,31.177,61.606,59,86.337,19.786,17.574,43.715,32.012,67.482,46.329,13.43,8.087,26.961,16.231,42.209,22.064,14.193,5.406,29.556,8.672,44.814,11.9,16.308,3.453,32.616,6.917,49.274,9.065,53.164,6.869,107.542.221,160.625-7,18.706-2.542,38.185-5.434,53.059-14.548,11.588-7.1,19.263-17.387,24.731-28.016,7.166-13.91,10.859-30.007,3.06-43.734-11.512-20.251-43.96-29.22-56.695-49.025C500.678,157,523.121,125.612,512.64,98.45c-4.36-11.305-14.1-20.86-24.27-29.642C464.124,47.833,433,29.788,394.815,37.319,362.491,43.693,333.813,56.553,299.134,56.366Z" transform="translate(-60.037 -35.575)" fill="#6c63ff" opacity="0.1"/>
  <path id="Path_655" data-name="Path 655" d="M724.246,149.009q-.427-.48-.883-.959c2.317-2.628,4.72-5.329,4.7-8.71-.024-4.106-3.669-7.262-5.031-11.142-1.851-5.276.719-10.946,1.775-16.442a30.832,30.832,0,0,0-6.686-25.364,8.9,8.9,0,0,0-3.909-2.993c-2.427-.763-5,.3-7.531.609-8.341,1.031-15.924-6.154-24.3-5.511a4.518,4.518,0,0,0-1.612.36A6.821,6.821,0,0,0,678.42,81.5c-2.6,3.837-6.974,5.756-11.32,7.7a5.92,5.92,0,0,0-1.544.71c-1.3.609-2.59,1.242-3.8,1.962-8.212,4.859-7.017,11.66-2.177,15.857-.959,4.715-5.756,8.864-4.936,13.713.652,3.8,4.609,6.384,5.372,10.164.441,2.2-.254,4.288-1.223,6.365-9.185,2.125-19.565,6.044-20.375,12.951-1.41,12.02-5.65,45.221-5.65,45.221s-4.921,26.592,13.742,14l-.24.71A154.739,154.739,0,0,0,639.41,242.2c-.187,1.588-.571,2.835-1.261,3.242-.249.149.245.384,1.324.676-.12.446-.254.892-.369,1.343a127.439,127.439,0,0,0-3.914,23.747,167.045,167.045,0,0,1-2.935,21.148c-4.422,22.246,0,50.785,0,50.785l9.65,45.432,1.65,7.766a11.539,11.539,0,0,0,3.909,2.82,60.559,60.559,0,0,1,1.343,8.456c.024.317.048.638.067.959A4.033,4.033,0,0,0,646,410.37c-3.439,4.835.48,8.706-12.773,18.38-3.429,2.5-5.079,4.773-5.5,6.715h0a4.513,4.513,0,0,0,2.278,4.9h0a8.312,8.312,0,0,0,.931.518h0q.245.115.48.221h0q.254.106.523.2h.029l.513.163h.038l.552.144h.048l.518.11h.067l.571.1h.062l.518.062h.1l.58.043h1.377l.518-.029h.139l.585-.058h.067l.523-.077.144-.024.58-.11h.058l.528-.129.149-.038c.192-.053.379-.106.571-.168h.033l.532-.187.144-.053c.187-.072.369-.144.552-.225,8.845-3.871,27.023-14.025,27.023-14.025v-1.919h0c-.053-4.168-.484-13.9-2.4-13.517-.657.13-1.1,1.05-1.559,2.11l-.225-.432c-1.871-3.612-4.581-9.809-4.845-15.867a28.388,28.388,0,0,0,4.178-3.7s-.988-4.159-1.827-8.547c-.729-3.8-1.348-7.775-1.122-9.348.48-3.386-5.895-29.5-5.895-29.5s.657-5.756,1.981-13.732c2.571-15.521,7.631-39.5,15.181-46.286.178-.154.35-.307.528-.441,0,0,5.406.959,9.828,31.436l1.281,13.569a78.774,78.774,0,0,0,1.919,11.152A58.779,58.779,0,0,1,687.3,359.6c-.561,8-.8,17.416-.9,24.026-.077,4.984-.077,8.375-.077,8.375a18.544,18.544,0,0,0,2.95,2.039v4.437A3.693,3.693,0,0,1,688.239,401h0a6.848,6.848,0,0,0-1.482,2.729c-.859,1.544-1.583,4.053-1.885,8.087-.959,13.061-1.473,11.607-1.473,11.607a17.217,17.217,0,0,0-1.113,4.4h0c-.029.283-.043.566-.053.854v.715a2.516,2.516,0,0,0,.024.288,1.031,1.031,0,0,0,.034.259.4.4,0,0,0,.029.182,3.444,3.444,0,0,1,.072.345l.038.149c.034.12.067.235.105.35l.038.105a3.306,3.306,0,0,0,.13.307l.043.091a3.4,3.4,0,0,0,.192.341l.057.091a3.688,3.688,0,0,0,.235.317l.062.072a3.531,3.531,0,0,0,.3.3l.034.029a3.625,3.625,0,0,0,.341.264l.053.038a3.923,3.923,0,0,0,.4.23l.081.043a4.5,4.5,0,0,0,.48.187l.082.024a5.32,5.32,0,0,0,.547.149h0a5.7,5.7,0,0,0,.6.091h.086c.211,0,.432.034.662.034h.978a5.958,5.958,0,0,0,.844-.091c10.317-1.439,15.234-2.4,14.74-8.221-.3-3.5-1.127-8.576-1.741-12.063a18.14,18.14,0,0,0-1.7-5.084q.038-.408.072-.839c.178-2.4.168-5.276-.561-7.161l.226-4.235a13.5,13.5,0,0,0,6.638-3.976s.072-3.137.288-7.3c.326-6.427.959-15.3,2.168-18.817,1.967-5.8,0-26.117,0-26.117s-7.372-34.823-.48-49.816c6.068-13.224,6.015-26.457.177-39.331a1.989,1.989,0,0,0,.312-.307s-1.473-.959-.959-12.092c.374-8.49-2.11-17.267-3.31-20.932a51.2,51.2,0,0,0,5.756,2.072c11.277,3.362,12.26-9.233,12.26-9.233l2.456-18.865,2.916-28.093h0C728.841,160.976,729.911,155.46,724.246,149.009ZM674.3,130.375a8.583,8.583,0,0,1-.067.931,12.516,12.516,0,0,1-.628,2.935,19.515,19.515,0,0,0,.609-3.924ZM704,199.036c.173.321.341.628.48.959l-1.242-.633a27.779,27.779,0,0,1,2.216-6.59,46.669,46.669,0,0,0,3-7.593,75.811,75.811,0,0,0,.437,9.041C709.895,201.938,704,199.036,704,199.036Z" transform="translate(-355.375 -57.888)" fill="url(#linear-gradient)"/>
  <path id="Path_656" data-name="Path 656" d="M692.151,106.978c-1.568,1.07-3.214,2.307-3.77,4.125-.9,2.931,1.362,5.871,1.583,8.931.408,5.559-5.88,10.154-4.955,15.656.633,3.77,4.5,6.331,5.243,10.073,1.084,5.468-4.84,10.288-4.375,15.828.25,2.959,2.307,5.473,4.638,7.305a22.587,22.587,0,0,0,11.334,4.653c-.273-4.753-3.8-9.085-3.194-13.809.417-3.238,2.7-5.89,4.015-8.878,2.317-5.247,1.573-11.32.187-16.884s-3.4-11.065-3.5-16.788c-.062-3.453,1.559-8.523.369-11.8C698.286,101.4,694.842,105.141,692.151,106.978Z" transform="translate(-385.193 -70.983)" fill="#f78181"/>
  <path id="Path_657" data-name="Path 657" d="M692.151,106.978c-1.568,1.07-3.214,2.307-3.77,4.125-.9,2.931,1.362,5.871,1.583,8.931.408,5.559-5.88,10.154-4.955,15.656.633,3.77,4.5,6.331,5.243,10.073,1.084,5.468-4.84,10.288-4.375,15.828.25,2.959,2.307,5.473,4.638,7.305a22.587,22.587,0,0,0,11.334,4.653c-.273-4.753-3.8-9.085-3.194-13.809.417-3.238,2.7-5.89,4.015-8.878,2.317-5.247,1.573-11.32.187-16.884s-3.4-11.065-3.5-16.788c-.062-3.453,1.559-8.523.369-11.8C698.286,101.4,694.842,105.141,692.151,106.978Z" transform="translate(-385.193 -70.983)" opacity="0.1"/>
  <path id="Path_664" data-name="Path 664" d="M712.35,511.865s1.919,20.145,0,25.9c-1.166,3.492-1.8,12.289-2.115,18.663-.211,4.125-.283,7.238-.283,7.238-9.113,9.593-19.666,0-19.666,0s0-3.358.077-8.308c.1-6.557.336-15.9.883-23.829a59.154,59.154,0,0,0-1.2-17.689,79.246,79.246,0,0,1-1.861-11.056l-1.252-13.459c-4.317-30.218-9.593-31.177-9.593-31.177-.173.134-.34.283-.513.436C669.45,465.3,664.509,489.1,662,504.488c-1.29,7.919-1.919,13.617-1.919,13.617s6.235,25.9,5.756,29.259c-.221,1.559.384,5.5,1.094,9.272.82,4.35,1.784,8.475,1.784,8.475-11.991,12.951-20.145,2.878-20.145,2.878l-1.612-7.7-9.42-45.058s-4.317-28.3,0-50.363a168.143,168.143,0,0,0,2.878-20.975,128.207,128.207,0,0,1,3.837-23.551q.878-3.425,1.948-6.8a236.608,236.608,0,0,1,34.971-3.132c12.72,0,24.846,1.76,28.343,7.929q1.209,2.13,2.2,4.269c6.072,13.051,6.236,26.457.2,39.859C705.155,477.331,712.35,511.865,712.35,511.865Z" transform="translate(-359.542 -230.621)" fill="#4c4c78"/>
  <path id="Path_665" data-name="Path 665" d="M697.053,203.114s-25.421-25.9-6.235-23.982c4.35.436,7.3-.341,9.248-1.8a9.291,9.291,0,0,0,3.42-6.854c.528-5.276-1.636-11.032-1.636-11.032s25.9-20.625,20.625,5.276a44.159,44.159,0,0,0-1.007,8.005c-.086,5.5,1.722,7.6,4.259,8.466,4.279,1.463,10.639-.585,13.536,4.154C744.538,194,697.053,203.114,697.053,203.114Z" transform="translate(-384.536 -95.982)" fill="#ffb9b9"/>
  <path id="Path_666" data-name="Path 666" d="M742.215,164.753a44.142,44.142,0,0,0-1.007,8.005,19.6,19.6,0,0,1-2.106.6,20.663,20.663,0,0,1-15.876-2.878c.528-5.276-1.636-11.032-1.636-11.032S747.491,138.852,742.215,164.753Z" transform="translate(-404.277 -95.993)" opacity="0.05"/>
  <path id="Path_667" data-name="Path 667" d="M746.84,130.587a20.625,20.625,0,1,1-41.25,0c0-.384,0-.767.034-1.146a20.625,20.625,0,0,1,41.216,1.146Z" transform="translate(-395.951 -74.297)" fill="#ffb9b9"/>
  <path id="Path_668" data-name="Path 668" d="M697.053,230.961s-25.421-25.9-6.235-23.982c4.35.436,7.3-.341,9.248-1.8-3.712,6.159-7.89,17.234,10.9,16.188,17.2-.959,16.9-7.809,14.764-12.308,4.279,1.463,10.639-.585,13.536,4.154C744.538,221.848,697.053,230.961,697.053,230.961Z" transform="translate(-384.536 -123.829)" opacity="0.05"/>
  <path id="Path_669" data-name="Path 669" d="M721.669,424.564c-4.365,5.674-60-1.765-68.139-4.235q.878-3.425,1.947-6.8a236.614,236.614,0,0,1,34.971-3.132c12.72,0,24.846,1.76,28.342,7.929q1.209,2.13,2.2,4.269C721.295,424.315,721.669,424.564,721.669,424.564Z" transform="translate(-368.862 -230.616)" opacity="0.1"/>
  <path id="Path_670" data-name="Path 670" d="M679.3,199.93s-32.376,2.638-33.815,15.109c-1.376,11.924-5.516,44.847-5.516,44.847s-4.8,26.381,13.43,13.91l-.235.7a155.561,155.561,0,0,0-6.691,31.1c-.187,1.573-.556,2.811-1.233,3.218-2.4,1.439,64.273,11.032,69.069,4.8,0,0-1.439-.959-.959-11.991s-3.837-22.544-3.837-22.544-3.837-11.512,1.439-22.544,3.358-14.389,3.358-14.389l18.227-13.91s3.938-6.749-3.262-15.075a24.941,24.941,0,0,0-17.133-8.442l-12.567-.911s13.776,14.821-12.126,16.26S679.3,199.93,679.3,199.93Z" transform="translate(-361.51 -121.097)" fill="#f9d048"/>
  <path id="Path_671" data-name="Path 671" d="M674.788,254.93s.959,7.674-.959,10.073-2.4,13.43,0,20.145" transform="translate(-378.579 -149.717)" opacity="0.05"/>
  <path id="Path_672" data-name="Path 672" d="M704.853,498.919c-7.372,6.715-12.313,30.51-14.821,45.9-3.492-21.426,11.032-56.891,11.032-56.891Z" transform="translate(-387.574 -270.958)" opacity="0.1"/>
  <path id="Path_673" data-name="Path 673" d="M680.987,723.735c-11.991,12.95-20.145,2.878-20.145,2.878l-1.612-7.7c4.533,2.355,12.193,4.182,19.973-3.65C680.023,719.61,680.987,723.735,680.987,723.735Z" transform="translate(-371.828 -389.25)" opacity="0.1"/>
  <path id="Path_674" data-name="Path 674" d="M769.539,713.68c-.211,4.125-.283,7.238-.283,7.238-9.113,9.593-19.666,0-19.666,0s0-3.357.077-8.308A19.766,19.766,0,0,0,769.539,713.68Z" transform="translate(-418.847 -387.871)" opacity="0.1"/>
  <rect id="Rectangle_311" data-name="Rectangle 311" width="32.616" height="13.43" rx="3.75" transform="translate(298.607 121.521)" fill="#cdd0db"/>
  <rect id="Rectangle_312" data-name="Rectangle 312" width="32.616" height="13.43" rx="3.75" transform="translate(298.607 121.521)" opacity="0.05"/>
  <rect id="Rectangle_313" data-name="Rectangle 313" width="32.616" height="13.43" rx="3.75" transform="translate(298.607 122.001)" fill="#cdd0db"/>
  <circle id="Ellipse_85" data-name="Ellipse 85" cx="1.439" cy="1.439" r="1.439" transform="translate(322.829 127.037)" fill="#9da7c0"/>
  <path id="Path_675" data-name="Path 675" d="M653.241,315.429a9.33,9.33,0,0,1,5.42-5.708,8.438,8.438,0,0,0,4.652-4.178c1.89-4.187,5.247-8.5,13.881-5.626s-2.4,4.8-2.4,4.8,19.666-2.878,11.991,2.878a73.462,73.462,0,0,1-17.267,9.113l-4.725,5a7.067,7.067,0,0,1-10.552-.211A6.118,6.118,0,0,1,653.241,315.429Z" transform="translate(-368.516 -172.64)" opacity="0.05"/>
  <path id="Path_676" data-name="Path 676" d="M652.241,313.429a9.329,9.329,0,0,1,5.42-5.708,8.438,8.438,0,0,0,4.653-4.178c1.89-4.187,5.247-8.5,13.881-5.626s-2.4,4.8-2.4,4.8,19.666-2.878,11.991,2.878a73.464,73.464,0,0,1-17.267,9.113l-4.725,5a7.067,7.067,0,0,1-10.552-.211A6.118,6.118,0,0,1,652.241,313.429Z" transform="translate(-367.995 -171.6)" fill="#ffb9b9"/>
  <path id="Path_677" data-name="Path 677" d="M757.859,326.331l-3.357,8.154-4.317-3.161-11.991-8.83-8.154-5.276c-11.512-8.634,0-10.073,0-10.073-4.317-1.919,0-3.837,0-3.837,15.349-3.358,12.471,9.113,12.471,9.113l9.722,5.041,3.228,1.674Z" transform="translate(-406.011 -174.591)" opacity="0.05"/>
  <path id="Path_678" data-name="Path 678" d="M759.859,324.331l-3.358,8.154-4.317-3.161-11.991-8.83-8.154-5.276c-11.512-8.634,0-10.073,0-10.073-4.317-1.919,0-3.837,0-3.837,15.349-3.358,12.471,9.113,12.471,9.113l9.722,5.041,3.228,1.674Z" transform="translate(-407.052 -173.551)" fill="#ffb9b9"/>
  <path id="Path_679" data-name="Path 679" d="M787.264,340.309l-3.358,8.154L779.59,345.3c3.89.139,8.485-1.741,2.029-13.862l3.228,1.674Z" transform="translate(-434.457 -189.529)" opacity="0.05"/>
  <path id="Path_680" data-name="Path 680" d="M801.889,248.93l.926,3.775-2.844,27.882-2.4,18.706s-.959,12.471-11.991,9.113-11.991-6.715-11.991-6.715,15.828,5.276,5.756-13.43c0,0,5.756,2.878,4.8-4.8s0-21.1,0-21.1Z" transform="translate(-431.335 -146.595)" fill="#f9d048"/>
  <path id="Path_681" data-name="Path 681" d="M746.85,130.587A20.625,20.625,0,0,1,730.785,150.7a10.459,10.459,0,0,1-.674-6c.959-3.919,5.5-6.777,4.993-10.783a2.657,2.657,0,0,0-.48-1.257c-1.012-1.333-3.074-.671-4.715-.341a8.972,8.972,0,0,1-10.034-6.187,14.02,14.02,0,0,1-14.265,3.3,20.625,20.625,0,0,1,41.216,1.146Z" transform="translate(-395.962 -74.298)" opacity="0.05"/>
  <path id="Path_682" data-name="Path 682" d="M710.892,110.4a8.958,8.958,0,0,0,10.029,6.183c1.64-.326,3.7-.988,4.715.345a2.59,2.59,0,0,1,.456,1.252c.508,4.01-4.015,6.864-4.988,10.787-1,4.039,1.919,7.938,2.566,12.049a45.539,45.539,0,0,1,0,6.816c0,2.274.537,4.72,2.226,6.235s4.8,1.544,5.933-.432c5.4,2.854,3.242,11.694,7.339,16.217,2.259,2.494,5.976,3.094,9.329,2.777a3.933,3.933,0,0,0,2.192-.71,3.838,3.838,0,0,0,1.075-2.015,16.362,16.362,0,0,0-.417-9.7c-.537-1.492-1.309-3-1.108-4.566a6.743,6.743,0,0,1,1.664-3.262c2.576-3.194,6.091-6.283,6.068-10.389s-3.583-7.195-4.912-11.032c-1.808-5.243.7-10.859,1.732-16.308a30.932,30.932,0,0,0-6.523-25.182,8.655,8.655,0,0,0-3.837-2.969c-2.365-.758-4.883.3-7.353.6-8.154,1.022-15.545-6.106-23.728-5.468a4.355,4.355,0,0,0-1.573.36,6.755,6.755,0,0,0-2.288,2.628c-3.612,5.4-10.711,6.936-16.275,10.284C676.985,104.668,698.464,122.358,710.892,110.4Z" transform="translate(-386.475 -59.517)" fill="#f78181"/>
  <path id="Path_685" data-name="Path 685" d="M906.43,697.9s-6.945-35.2,7.353-59.3a54.343,54.343,0,0,0,7.5-33.547,91.394,91.394,0,0,0-3.357-16.375" transform="translate(-499.581 -323.379)" fill="none" stroke="#535461" stroke-miterlimit="10" stroke-width="2"/>
  <path id="Path_686" data-name="Path 686" d="M934.331,547.823c-.384,4.2-9.113,15.675-9.113,15.675s-6.485-12.874-6.1-17.076a7.635,7.635,0,1,1,15.207,1.4Z" transform="translate(-507.054 -297.785)" fill="#6c63ff"/>
  <path id="Path_687" data-name="Path 687" d="M955.064,594.088C952.46,597.4,938.9,602.3,938.9,602.3s1.554-14.332,4.159-17.646a7.636,7.636,0,1,1,11.991,9.435Z" transform="translate(-517.354 -319.636)" fill="#6c63ff"/>
  <path id="Path_688" data-name="Path 688" d="M944.207,674.538c-3.924,1.544-18.1-1.074-18.1-1.074s8.576-11.588,12.5-13.133a7.635,7.635,0,1,1,5.6,14.208Z" transform="translate(-510.699 -360.389)" fill="#6c63ff"/>
  <path id="Path_690" data-name="Path 690" d="M903.467,609.848c2.744,3.2,16.5,7.521,16.5,7.521s-2.158-14.255-4.9-17.454a7.636,7.636,0,1,0-11.6,9.934Z" transform="translate(-497.961 -327.841)" fill="#6c63ff"/>
  <path id="Path_691" data-name="Path 691" d="M878.229,680.01c3.573,2.235,17.992,2.24,17.992,2.24s-6.322-12.946-9.9-15.19a7.636,7.636,0,1,0-8.092,12.951Z" transform="translate(-483.918 -363.564)" fill="#6c63ff"/>
  <path id="Path_693" data-name="Path 693" d="M476.576,163.145a6.969,6.969,0,0,0-6.94-6.715h-125.5a7.08,7.08,0,0,0-7.089,6.106,6.974,6.974,0,0,0,6.9,7.8h126.1a5.578,5.578,0,0,1,5.43,3,8.842,8.842,0,0,1,.811,2.4l.283.139V163.164Z" transform="translate(-204.153 -98.462)" fill="#6c63ff"/>
  <path id="Path_694" data-name="Path 694" d="M554.109,257.145a6.969,6.969,0,0,0-6.941-6.715H493.135a7.08,7.08,0,0,0-7.089,6.106,6.974,6.974,0,0,0,6.9,7.8h54.637a5.578,5.578,0,0,1,5.43,3,8.837,8.837,0,0,1,.811,2.4l.283.139V257.164Z" transform="translate(-281.686 -147.375)" fill="#6c63ff"/>
  <path id="Path_695" data-name="Path 695" d="M288,116.145c.082-3.713,2.086-6.715,4.533-6.715h82.058c2.5,0,4.542,3.127,4.542,6.955s-2.043,6.955-4.542,6.955H292.518a3.722,3.722,0,0,0-3.6,2.4,12.952,12.952,0,0,0-.739,2.993l-.182.139V116.159Z" transform="translate(-178.658 -74.006)" fill="#6c63ff" opacity="0.2"/>
  <path id="Path_696" data-name="Path 696" d="M288,210.145c.1-3.712,2.537-6.715,5.511-6.715h99.767c3.036,0,5.521,3.127,5.521,6.955s-2.485,6.955-5.521,6.955H293.511a4.652,4.652,0,0,0-4.374,2.4,11.107,11.107,0,0,0-.9,2.993l-.225.139V210.159Z" transform="translate(-178.658 -122.919)" fill="#6c63ff" opacity="0.2"/>
  <circle id="Ellipse_86" data-name="Ellipse 86" cx="2.398" cy="2.398" r="2.398" transform="translate(211.987 107.372)" fill="#fff" opacity="0.2"/>
  <circle id="Ellipse_87" data-name="Ellipse 87" cx="2.398" cy="2.398" r="2.398" transform="translate(220.141 107.372)" fill="#fff" opacity="0.2"/>
  <circle id="Ellipse_88" data-name="Ellipse 88" cx="2.398" cy="2.398" r="2.398" transform="translate(228.295 107.372)" fill="#fff" opacity="0.2"/>
  <ellipse id="Ellipse_84" data-name="Ellipse 84" cx="121.831" cy="23.503" rx="121.831" ry="23.503" transform="translate(194.72 350.554)" fill="#6c63ff" opacity="0.1"/>
  <path id="Path_658" data-name="Path 658" d="M687.735,752.872l-4.317,4.317s-15.349,8.154-13.43-2.878a39.7,39.7,0,0,0,.331-9.919,61.657,61.657,0,0,0-2.729-13.584l14.39-2.878c-2.4,7.521,1.549,16.989,4.01,21.81C686.973,751.682,687.735,752.872,687.735,752.872Z" transform="translate(-376.178 -395.843)" fill="#ffb9b9"/>
  <path id="Path_659" data-name="Path 659" d="M762.921,740.5a43.885,43.885,0,0,1-.547,4.408s-11.991,8.154-12.951-.959c-.623-5.938.787-8.634,1.851-9.766h0a3.694,3.694,0,0,0,1.007-2.5V720.93l10.552,3.357-.48,9.113A18.2,18.2,0,0,1,762.921,740.5Z" transform="translate(-418.68 -392.2)" fill="#ffb9b9"/>
  <path id="Path_660" data-name="Path 660" d="M690.157,770.683,685.84,775s-15.349,8.154-13.43-2.878a39.7,39.7,0,0,0,.331-9.919c3.357-.48,7.343,3.2,7.343,3.2,5.622,7.933,7.137,4.931,8.327,2.144C689.394,769.494,690.157,770.683,690.157,770.683Z" transform="translate(-378.6 -413.654)" opacity="0.05"/>
  <path id="Path_661" data-name="Path 661" d="M658.19,767.4s-6.715-6.235-10.073-1.439.48,8.634-12.471,18.227,0,15.828,8.634,11.991,26.381-13.91,26.381-13.91,0-15.828-2.4-15.349S666.344,778.913,658.19,767.4Z" transform="translate(-356.705 -414.689)" fill="#8189a6"/>
  <path id="Path_662" data-name="Path 662" d="M762.921,754.261a43.882,43.882,0,0,1-.547,4.408s-11.991,8.154-12.951-.959c-.623-5.938.787-8.634,1.851-9.766a2.878,2.878,0,0,1,2.945-.307c1.919-.854,4.029.571,5.756,2.4A16.958,16.958,0,0,1,762.921,754.261Z" transform="translate(-418.68 -405.957)" opacity="0.05"/>
  <path id="Path_663" data-name="Path 663" d="M750.026,749.634s-5.276-2.878-6.236,10.073-1.439,11.512-1.439,11.512-4.8,11.512,5.276,10.073,14.869-2.4,14.389-8.154c-.288-3.468-1.1-8.509-1.7-11.963a17.588,17.588,0,0,0-4.513-9.113C754.06,750.2,751.945,748.781,750.026,749.634Z" transform="translate(-414.487 -406.995)" fill="#8189a6"/>
  <path id="Path_683" data-name="Path 683" d="M644.285,811.84c-5.607,2.489-13.027.734-14-3.425-1.175,5.5,7.6,8.192,14,5.343,8.634-3.837,26.381-13.91,26.381-13.91s0-.743-.024-1.919C670.124,798.237,652.789,808.036,644.285,811.84Z" transform="translate(-356.71 -432.267)" fill="#fff" opacity="0.3"/>
  <path id="Path_684" data-name="Path 684" d="M761.994,798.35c-.552,4.317-5.339,5.223-14.366,6.514-4.59.657-6.087-1.381-6.365-3.789-.3,3.084.576,6.533,6.365,5.708,10.073-1.439,14.869-2.4,14.39-8.154C762.008,798.537,762,798.441,761.994,798.35Z" transform="translate(-414.487 -432.486)" fill="#fff" opacity="0.3"/>
  <path id="Path_689" data-name="Path 689" d="M923.56,736.283c-3.607,2.187-18.021,2-18.021,2s6.5-12.864,10.1-15.056a7.636,7.636,0,1,1,7.92,13.057Z" transform="translate(-499.995 -392.819)" fill="#6c63ff"/>
  <path id="Path_692" data-name="Path 692" d="M866.02,753.562c3.147,2.806,17.354,5.252,17.354,5.252s-4.043-13.838-7.195-16.644a7.636,7.636,0,1,0-10.159,11.392Z" transform="translate(-478.002 -402.155)" fill="#6c63ff"/>
</svg>
